<?xml version="1.0" encoding="UTF-8" standalone="no"?>
<!DOCTYPE svg PUBLIC "-//W3C//DTD SVG 1.1//EN"
 "http://www.w3.org/Graphics/SVG/1.1/DTD/svg11.dtd">
<!-- Generated by graphviz version 2.30.1 (20130214.1330)
 -->
<!-- Title: G Pages: 1 -->
<svg width="620pt" height="659pt"
 viewBox="0.00 0.00 620.00 659.42" xmlns="http://www.w3.org/2000/svg" xmlns:xlink="http://www.w3.org/1999/xlink">
<g id="graph0" class="graph" transform="scale(1 1) rotate(0) translate(4 655.425)">
<title>G</title>
<polygon fill="white" stroke="white" points="-4,5 -4,-655.425 617,-655.425 617,5 -4,5"/>
<g id="clust1" class="cluster"><title>cluster_inputs</title>
<polygon fill="none" stroke="white" points="287,-594 287,-628 364,-628 364,-594 287,-594"/>
</g>
<g id="clust2" class="cluster"><title>cluster_outputs</title>
<polygon fill="none" stroke="white" points="240,-8 240,-54 286,-54 286,-8 240,-8"/>
</g>
<!-- 1 -->
<g id="node1" class="node"><title>1</title>
<polygon fill="lightgrey" stroke="black" points="316.25,-620 295.75,-620 295.75,-602 316.25,-602 316.25,-620"/>
<text text-anchor="middle" x="306" y="-608.8" font-family="Times New Roman,serif" font-size="9.00">1</text>
</g>
<!-- 3 -->
<g id="node3" class="node"><title>3</title>
<ellipse fill="lightblue" stroke="lightblue" cx="263" cy="-31" rx="14.2796" ry="14.7"/>
<text text-anchor="middle" x="263" y="-28.8" font-family="Times New Roman,serif" font-size="9.00">3</text>
</g>
<!-- 1&#45;&gt;3 -->
<g id="edge2" class="edge"><title>1&#45;&gt;3</title>
<path fill="none" stroke="black" d="M298.979,-601.845C295.448,-598.264 290.884,-594.348 286,-592 197.5,-549.442 151.771,-607.243 68,-556 24.6256,-529.468 0,-514.846 0,-464 0,-464 0,-464 0,-166 0,-59.6693 172.781,-37.6745 238.254,-33.157"/>
<polygon fill="black" stroke="black" points="238.716,-36.6355 248.485,-32.5355 238.292,-29.6484 238.716,-36.6355"/>
</g>
<!-- 17 -->
<g id="node9" class="node"><title>17</title>
<ellipse fill="none" stroke="black" cx="130" cy="-241" rx="18.0791" ry="18.2703"/>
<text text-anchor="middle" x="130" y="-238.8" font-family="Times New Roman,serif" font-size="9.00">17</text>
</g>
<!-- 1&#45;&gt;17 -->
<g id="edge5" class="edge"><title>1&#45;&gt;17</title>
<path fill="none" stroke="black" d="M296.725,-601.605C283.104,-589.135 258.592,-566.105 252,-556 189.113,-459.592 150.812,-325.827 136.463,-269.13"/>
<polygon fill="black" stroke="black" points="139.794,-268.02 133.988,-259.159 133.001,-269.707 139.794,-268.02"/>
</g>
<!-- 4 -->
<g id="node8" class="node"><title>4</title>
<ellipse fill="none" stroke="black" cx="263" cy="-97" rx="14.2796" ry="14.7"/>
<text text-anchor="middle" x="263" y="-94.8" font-family="Times New Roman,serif" font-size="9.00">4</text>
</g>
<!-- 1&#45;&gt;4 -->
<g id="edge28" class="edge"><title>1&#45;&gt;4</title>
<path fill="none" stroke="black" d="M297.797,-601.841C294.312,-598.586 290.111,-594.925 286,-592 190.052,-523.72 54,-581.764 54,-464 54,-464 54,-464 54,-388 54,-277.606 42.7778,-228.799 118,-148 149.788,-113.855 205.977,-103.028 238.282,-99.5942"/>
<polygon fill="black" stroke="black" points="238.609,-103.079 248.252,-98.6903 237.977,-96.1076 238.609,-103.079"/>
</g>
<!-- 9 -->
<g id="node5" class="node"><title>9</title>
<ellipse fill="none" stroke="black" cx="225" cy="-315" rx="14.2796" ry="14.7"/>
<text text-anchor="middle" x="225" y="-312.8" font-family="Times New Roman,serif" font-size="9.00">9</text>
</g>
<!-- 1&#45;&gt;9 -->
<g id="edge43" class="edge"><title>1&#45;&gt;9</title>
<path fill="none" stroke="black" d="M298.556,-601.901C289.799,-591.897 275.504,-573.986 268,-556 236.823,-481.27 228.229,-384.218 225.877,-339.928"/>
<polygon fill="black" stroke="black" points="229.369,-339.675 225.404,-329.85 222.377,-340.003 229.369,-339.675"/>
</g>
<!-- 2 -->
<g id="node2" class="node"><title>2</title>
<polygon fill="lightgrey" stroke="black" points="355.25,-620 334.75,-620 334.75,-602 355.25,-602 355.25,-620"/>
<text text-anchor="middle" x="345" y="-608.8" font-family="Times New Roman,serif" font-size="9.00">2</text>
</g>
<!-- 12 -->
<g id="node10" class="node"><title>12</title>
<ellipse fill="none" stroke="black" cx="527" cy="-537" rx="18.0791" ry="18.2703"/>
<text text-anchor="middle" x="527" y="-534.8" font-family="Times New Roman,serif" font-size="9.00">12</text>
</g>
<!-- 2&#45;&gt;12 -->
<g id="edge8" class="edge"><title>2&#45;&gt;12</title>
<path fill="none" stroke="black" d="M355.42,-606.91C380.158,-599.432 444.157,-579.255 495,-556 497.522,-554.847 500.11,-553.566 502.67,-552.234"/>
<polygon fill="black" stroke="black" points="504.554,-555.193 511.646,-547.322 501.193,-549.052 504.554,-555.193"/>
</g>
<!-- 5 -->
<g id="node4" class="node"><title>5</title>
<ellipse fill="none" stroke="black" cx="365" cy="-389" rx="14.2796" ry="14.7"/>
<text text-anchor="middle" x="365" y="-386.8" font-family="Times New Roman,serif" font-size="9.00">5</text>
</g>
<!-- 2&#45;&gt;5 -->
<g id="edge10" class="edge"><title>2&#45;&gt;5</title>
<path fill="none" stroke="cornflowerblue" stroke-dasharray="1,5" d="M355.435,-607.894C376.477,-603.02 423.634,-588.782 443,-556 456.621,-532.942 431.71,-450.317 428,-444 417.826,-426.678 400.041,-412.204 385.957,-402.615"/>
<polygon fill="cornflowerblue" stroke="cornflowerblue" points="387.649,-399.541 377.353,-397.039 383.841,-405.415 387.649,-399.541"/>
</g>
<!-- 13 -->
<g id="node17" class="node"><title>13</title>
<ellipse fill="none" stroke="black" cx="259" cy="-611" rx="18.0791" ry="18.2703"/>
<text text-anchor="middle" x="259" y="-608.8" font-family="Times New Roman,serif" font-size="9.00">13</text>
</g>
<!-- 2&#45;&gt;13 -->
<g id="edge18" class="edge"><title>2&#45;&gt;13</title>
<path fill="none" stroke="black" d="M340.778,-620.296C336.134,-629.26 327.741,-642.285 316,-648 306.409,-652.669 301.734,-652.362 292,-648 285.456,-645.068 279.676,-640.125 274.856,-634.792"/>
<polygon fill="black" stroke="black" points="277.496,-632.489 268.504,-626.886 272.039,-636.874 277.496,-632.489"/>
</g>
<!-- 2&#45;&gt;3 -->
<g id="edge30" class="edge"><title>2&#45;&gt;3</title>
<path fill="none" stroke="cornflowerblue" stroke-dasharray="1,5" d="M355.441,-608.872C396.026,-604.297 542.74,-585.926 577,-556 609.948,-527.22 612,-507.748 612,-464 612,-464 612,-464 612,-166 612,-96.2642 366.083,-49.1834 287.106,-35.8615"/>
<polygon fill="cornflowerblue" stroke="cornflowerblue" points="287.551,-32.3875 277.113,-34.2069 286.407,-39.2934 287.551,-32.3875"/>
</g>
<!-- 7 -->
<g id="node6" class="node"><title>7</title>
<ellipse fill="none" stroke="black" cx="345" cy="-537" rx="14.2796" ry="14.7"/>
<text text-anchor="middle" x="345" y="-534.8" font-family="Times New Roman,serif" font-size="9.00">7</text>
</g>
<!-- 2&#45;&gt;7 -->
<g id="edge34" class="edge"><title>2&#45;&gt;7</title>
<path fill="none" stroke="cornflowerblue" stroke-dasharray="1,5" d="M345,-601.741C345,-592.181 345,-575.999 345,-562.332"/>
<polygon fill="cornflowerblue" stroke="cornflowerblue" points="348.5,-562.085 345,-552.085 341.5,-562.085 348.5,-562.085"/>
</g>
<!-- 6 -->
<g id="node14" class="node"><title>6</title>
<ellipse fill="none" stroke="black" cx="569" cy="-463" rx="14.2796" ry="14.7"/>
<text text-anchor="middle" x="569" y="-460.8" font-family="Times New Roman,serif" font-size="9.00">6</text>
</g>
<!-- 2&#45;&gt;6 -->
<g id="edge38" class="edge"><title>2&#45;&gt;6</title>
<path fill="none" stroke="cornflowerblue" stroke-dasharray="1,5" d="M355.363,-608.81C393.66,-604.198 526.399,-586.241 554,-556 570.646,-537.762 572.778,-508.583 571.784,-487.984"/>
<polygon fill="cornflowerblue" stroke="cornflowerblue" points="575.259,-487.528 571.011,-477.822 568.279,-488.059 575.259,-487.528"/>
</g>
<!-- 15 -->
<g id="node13" class="node"><title>15</title>
<ellipse fill="none" stroke="black" cx="416" cy="-537" rx="18.0791" ry="18.2703"/>
<text text-anchor="middle" x="416" y="-534.8" font-family="Times New Roman,serif" font-size="9.00">15</text>
</g>
<!-- 2&#45;&gt;15 -->
<g id="edge40" class="edge"><title>2&#45;&gt;15</title>
<path fill="none" stroke="black" d="M353.145,-601.741C363.532,-591.207 381.849,-572.632 396.039,-558.242"/>
<polygon fill="black" stroke="black" points="398.892,-560.333 403.422,-550.756 393.908,-555.418 398.892,-560.333"/>
</g>
<!-- 2&#45;&gt;4 -->
<g id="edge42" class="edge"><title>2&#45;&gt;4</title>
<path fill="none" stroke="black" d="M338.729,-601.975C322.794,-580.753 282,-520.869 282,-464 282,-464 282,-464 282,-240 282,-198.061 273.757,-149.765 268.13,-121.68"/>
<polygon fill="black" stroke="black" points="271.504,-120.712 266.053,-111.627 264.649,-122.128 271.504,-120.712"/>
</g>
<!-- 5&#45;&gt;9 -->
<g id="edge1" class="edge"><title>5&#45;&gt;9</title>
<path fill="none" stroke="black" d="M352.08,-381.355C328.118,-369.032 276.545,-342.509 246.994,-327.311"/>
<polygon fill="black" stroke="black" points="248.382,-324.089 237.889,-322.628 245.181,-330.315 248.382,-324.089"/>
</g>
<!-- 5&#45;&gt;4 -->
<g id="edge24" class="edge"><title>5&#45;&gt;4</title>
<path fill="none" stroke="black" d="M362.561,-374.22C355.593,-336.637 333.638,-229.709 296,-148 291.039,-137.231 283.953,-126.138 277.617,-117.145"/>
<polygon fill="black" stroke="black" points="280.357,-114.962 271.639,-108.942 274.7,-119.085 280.357,-114.962"/>
</g>
<!-- 9&#45;&gt;4 -->
<g id="edge9" class="edge"><title>9&#45;&gt;4</title>
<path fill="none" stroke="cornflowerblue" stroke-dasharray="1,5" d="M227.435,-300.16C233.776,-264.117 250.857,-167.024 258.814,-121.792"/>
<polygon fill="cornflowerblue" stroke="cornflowerblue" points="262.3,-122.18 260.585,-111.725 255.406,-120.967 262.3,-122.18"/>
</g>
<!-- 11 -->
<g id="node18" class="node"><title>11</title>
<ellipse fill="none" stroke="black" cx="198" cy="-241" rx="18.0791" ry="18.2703"/>
<text text-anchor="middle" x="198" y="-238.8" font-family="Times New Roman,serif" font-size="9.00">11</text>
</g>
<!-- 9&#45;&gt;11 -->
<g id="edge19" class="edge"><title>9&#45;&gt;11</title>
<path fill="none" stroke="black" d="M220.048,-300.794C216.621,-291.656 211.946,-279.189 207.782,-268.086"/>
<polygon fill="black" stroke="black" points="210.942,-266.543 204.153,-258.408 204.387,-269.001 210.942,-266.543"/>
</g>
<!-- 7&#45;&gt;3 -->
<g id="edge3" class="edge"><title>7&#45;&gt;3</title>
<path fill="none" stroke="black" d="M333.539,-527.953C292.368,-498.246 151.818,-389.725 103,-260 85.3114,-212.996 91.8341,-190.867 118,-148 148.443,-98.1256 208.463,-60.7262 240.918,-43.1378"/>
<polygon fill="black" stroke="black" points="242.831,-46.0858 250.042,-38.3235 239.565,-39.8947 242.831,-46.0858"/>
</g>
<!-- 7&#45;&gt;6 -->
<g id="edge15" class="edge"><title>7&#45;&gt;6</title>
<path fill="none" stroke="black" d="M357.964,-530.309C366.661,-526.588 378.418,-521.742 389,-518 444.194,-498.483 510.448,-479.796 545.141,-470.364"/>
<polygon fill="black" stroke="black" points="546.105,-473.729 554.847,-467.743 544.28,-466.971 546.105,-473.729"/>
</g>
<!-- 10 -->
<g id="node12" class="node"><title>10</title>
<ellipse fill="none" stroke="black" cx="466" cy="-241" rx="18.0791" ry="18.2703"/>
<text text-anchor="middle" x="466" y="-238.8" font-family="Times New Roman,serif" font-size="9.00">10</text>
</g>
<!-- 7&#45;&gt;10 -->
<g id="edge20" class="edge"><title>7&#45;&gt;10</title>
<path fill="none" stroke="black" d="M341.052,-522.393C333.314,-493.122 318.758,-422.567 341,-370 362.06,-320.226 412.239,-278.981 442.223,-257.665"/>
<polygon fill="black" stroke="black" points="444.601,-260.275 450.826,-251.702 440.613,-254.522 444.601,-260.275"/>
</g>
<!-- 7&#45;&gt;5 -->
<g id="edge29" class="edge"><title>7&#45;&gt;5</title>
<path fill="none" stroke="cornflowerblue" stroke-dasharray="1,5" d="M356.309,-527.54C368.046,-517.982 385.689,-501.228 393,-482 402.238,-457.703 389.882,-428.93 378.782,-410.113"/>
<polygon fill="cornflowerblue" stroke="cornflowerblue" points="381.654,-408.106 373.373,-401.498 375.726,-411.828 381.654,-408.106"/>
</g>
<!-- 18 -->
<g id="node19" class="node"><title>18</title>
<ellipse fill="none" stroke="black" cx="366" cy="-463" rx="18.0791" ry="18.2703"/>
<text text-anchor="middle" x="366" y="-460.8" font-family="Times New Roman,serif" font-size="9.00">18</text>
</g>
<!-- 7&#45;&gt;18 -->
<g id="edge31" class="edge"><title>7&#45;&gt;18</title>
<path fill="none" stroke="black" d="M348.95,-522.457C351.561,-513.505 355.072,-501.468 358.229,-490.643"/>
<polygon fill="black" stroke="black" points="361.667,-491.357 361.107,-480.777 354.947,-489.397 361.667,-491.357"/>
</g>
<!-- 19 -->
<g id="node7" class="node"><title>19</title>
<ellipse fill="none" stroke="black" cx="160" cy="-167" rx="18.0791" ry="18.2703"/>
<text text-anchor="middle" x="160" y="-164.8" font-family="Times New Roman,serif" font-size="9.00">19</text>
</g>
<!-- 19&#45;&gt;4 -->
<g id="edge4" class="edge"><title>19&#45;&gt;4</title>
<path fill="none" stroke="black" d="M175.198,-155.966C193.072,-144.166 222.817,-124.529 242.664,-111.426"/>
<polygon fill="black" stroke="black" points="244.846,-114.179 251.263,-105.749 240.989,-108.337 244.846,-114.179"/>
</g>
<!-- 4&#45;&gt;3 -->
<g id="edge39" class="edge"><title>4&#45;&gt;3</title>
<path fill="none" stroke="black" d="M263,-82.113C263,-74.4811 263,-64.7997 263,-55.9854"/>
<polygon fill="black" stroke="black" points="266.5,-55.8599 263,-45.8599 259.5,-55.86 266.5,-55.8599"/>
</g>
<!-- 17&#45;&gt;19 -->
<g id="edge25" class="edge"><title>17&#45;&gt;19</title>
<path fill="none" stroke="black" d="M136.807,-223.662C140.49,-214.825 145.122,-203.707 149.277,-193.736"/>
<polygon fill="black" stroke="black" points="152.604,-194.85 153.219,-184.273 146.142,-192.158 152.604,-194.85"/>
</g>
<!-- 17&#45;&gt;4 -->
<g id="edge32" class="edge"><title>17&#45;&gt;4</title>
<path fill="none" stroke="cornflowerblue" stroke-dasharray="1,5" d="M125.381,-222.972C121.055,-203.054 117.349,-170.01 133,-148 157.212,-113.95 207.96,-103.086 238.395,-99.6212"/>
<polygon fill="cornflowerblue" stroke="cornflowerblue" points="238.978,-103.082 248.602,-98.6502 238.315,-96.1131 238.978,-103.082"/>
</g>
<!-- 12&#45;&gt;5 -->
<g id="edge6" class="edge"><title>12&#45;&gt;5</title>
<path fill="none" stroke="black" d="M526.958,-518.389C525.954,-497.912 521.213,-464.329 502,-444 467.246,-407.228 439.807,-429.488 394,-408 391.09,-406.635 388.11,-405.04 385.222,-403.374"/>
<polygon fill="black" stroke="black" points="386.851,-400.267 376.501,-398.003 383.181,-406.227 386.851,-400.267"/>
</g>
<!-- 12&#45;&gt;6 -->
<g id="edge17" class="edge"><title>12&#45;&gt;6</title>
<path fill="none" stroke="black" d="M535.907,-520.731C541.927,-510.411 549.958,-496.643 556.601,-485.255"/>
<polygon fill="black" stroke="black" points="559.764,-486.779 561.78,-476.377 553.718,-483.251 559.764,-486.779"/>
</g>
<!-- 14 -->
<g id="node11" class="node"><title>14</title>
<ellipse fill="none" stroke="black" cx="487" cy="-389" rx="18.0791" ry="18.2703"/>
<text text-anchor="middle" x="487" y="-386.8" font-family="Times New Roman,serif" font-size="9.00">14</text>
</g>
<!-- 14&#45;&gt;10 -->
<g id="edge7" class="edge"><title>14&#45;&gt;10</title>
<path fill="none" stroke="black" d="M485.262,-370.66C483.326,-352.131 479.946,-321.922 476,-296 474.674,-287.288 473.002,-277.829 471.407,-269.297"/>
<polygon fill="black" stroke="black" points="474.842,-268.627 469.527,-259.462 467.967,-269.941 474.842,-268.627"/>
</g>
<!-- 16 -->
<g id="node16" class="node"><title>16</title>
<ellipse fill="none" stroke="black" cx="449" cy="-315" rx="18.0791" ry="18.2703"/>
<text text-anchor="middle" x="449" y="-312.8" font-family="Times New Roman,serif" font-size="9.00">16</text>
</g>
<!-- 14&#45;&gt;16 -->
<g id="edge37" class="edge"><title>14&#45;&gt;16</title>
<path fill="none" stroke="black" d="M478.755,-372.377C473.875,-363.131 467.583,-351.21 462.044,-340.714"/>
<polygon fill="black" stroke="black" points="464.992,-338.803 457.229,-331.592 458.802,-342.07 464.992,-338.803"/>
</g>
<!-- 8 -->
<g id="node15" class="node"><title>8</title>
<ellipse fill="none" stroke="black" cx="484" cy="-167" rx="14.2796" ry="14.7"/>
<text text-anchor="middle" x="484" y="-164.8" font-family="Times New Roman,serif" font-size="9.00">8</text>
</g>
<!-- 10&#45;&gt;8 -->
<g id="edge13" class="edge"><title>10&#45;&gt;8</title>
<path fill="none" stroke="black" d="M470.266,-222.937C472.611,-213.554 475.557,-201.773 478.118,-191.528"/>
<polygon fill="black" stroke="black" points="481.576,-192.125 480.606,-181.574 474.785,-190.427 481.576,-192.125"/>
</g>
<!-- 10&#45;&gt;4 -->
<g id="edge27" class="edge"><title>10&#45;&gt;4</title>
<path fill="none" stroke="black" d="M461.224,-222.883C454.611,-202.25 440.714,-167.88 417,-148 379.066,-116.2 320.453,-104.49 287.558,-100.278"/>
<polygon fill="black" stroke="black" points="287.789,-96.782 277.455,-99.1193 286.991,-103.736 287.789,-96.782"/>
</g>
<!-- 15&#45;&gt;5 -->
<g id="edge11" class="edge"><title>15&#45;&gt;5</title>
<path fill="none" stroke="black" d="M417.711,-518.348C418.873,-499.293 418.74,-468.398 409,-444 403.339,-429.821 392.561,-416.493 383.089,-406.626"/>
<polygon fill="black" stroke="black" points="385.464,-404.053 375.895,-399.505 380.54,-409.028 385.464,-404.053"/>
</g>
<!-- 6&#45;&gt;14 -->
<g id="edge12" class="edge"><title>6&#45;&gt;14</title>
<path fill="none" stroke="black" d="M558.28,-452.587C545.637,-441.486 524.314,-422.764 508.277,-408.682"/>
<polygon fill="black" stroke="black" points="510.27,-405.774 500.446,-401.806 505.651,-411.034 510.27,-405.774"/>
</g>
<!-- 6&#45;&gt;10 -->
<g id="edge16" class="edge"><title>6&#45;&gt;10</title>
<path fill="none" stroke="cornflowerblue" stroke-dasharray="1,5" d="M563.237,-449.015C550.743,-420.952 520.1,-352.606 493,-296 488.432,-286.457 483.268,-276.045 478.689,-266.932"/>
<polygon fill="cornflowerblue" stroke="cornflowerblue" points="481.81,-265.346 474.179,-257.997 475.561,-268.501 481.81,-265.346"/>
</g>
<!-- 6&#45;&gt;4 -->
<g id="edge23" class="edge"><title>6&#45;&gt;4</title>
<path fill="none" stroke="cornflowerblue" stroke-dasharray="1,5" d="M555.912,-456.693C530.319,-446.13 474.847,-422.266 460,-408 365.058,-316.774 399.395,-251.494 318,-148 307.702,-134.906 293.804,-122.303 282.555,-113.026"/>
<polygon fill="cornflowerblue" stroke="cornflowerblue" points="284.565,-110.151 274.573,-106.627 280.186,-115.613 284.565,-110.151"/>
</g>
<!-- 6&#45;&gt;8 -->
<g id="edge33" class="edge"><title>6&#45;&gt;8</title>
<path fill="none" stroke="cornflowerblue" stroke-dasharray="1,5" d="M566.644,-448.171C563.446,-430.072 557.288,-397.426 550,-370 532.494,-304.121 505.878,-228.116 492.421,-190.917"/>
<polygon fill="cornflowerblue" stroke="cornflowerblue" points="495.551,-189.282 488.842,-181.082 488.973,-191.676 495.551,-189.282"/>
</g>
<!-- 8&#45;&gt;3 -->
<g id="edge36" class="edge"><title>8&#45;&gt;3</title>
<path fill="none" stroke="black" d="M471.803,-158.605C435.73,-136.732 329.249,-72.1692 283.868,-44.6531"/>
<polygon fill="black" stroke="black" points="285.525,-41.5644 275.159,-39.3724 281.895,-47.5501 285.525,-41.5644"/>
</g>
<!-- 8&#45;&gt;4 -->
<g id="edge41" class="edge"><title>8&#45;&gt;4</title>
<path fill="none" stroke="black" d="M472.585,-157.804C467.413,-154.388 461.1,-150.616 455,-148 397.375,-123.287 324.623,-108.439 287.392,-101.921"/>
<polygon fill="black" stroke="black" points="287.899,-98.4572 277.454,-100.233 286.727,-105.358 287.899,-98.4572"/>
</g>
<!-- 16&#45;&gt;10 -->
<g id="edge14" class="edge"><title>16&#45;&gt;10</title>
<path fill="none" stroke="black" d="M453.029,-296.937C455.019,-288.508 457.466,-278.143 459.697,-268.696"/>
<polygon fill="black" stroke="black" points="463.108,-269.477 462,-258.941 456.296,-267.869 463.108,-269.477"/>
</g>
<!-- 13&#45;&gt;11 -->
<g id="edge22" class="edge"><title>13&#45;&gt;11</title>
<path fill="none" stroke="black" d="M254.356,-593.054C242.829,-550.12 212.973,-433.411 201,-334 198.424,-312.614 197.729,-288.244 197.648,-269.961"/>
<polygon fill="black" stroke="black" points="201.149,-269.712 197.664,-259.707 194.149,-269.701 201.149,-269.712"/>
</g>
<!-- 13&#45;&gt;7 -->
<g id="edge35" class="edge"><title>13&#45;&gt;7</title>
<path fill="none" stroke="black" d="M272.817,-598.432C287.373,-586.246 310.376,-566.987 326.493,-553.495"/>
<polygon fill="black" stroke="black" points="328.791,-556.135 334.211,-547.032 324.297,-550.768 328.791,-556.135"/>
</g>
<!-- 11&#45;&gt;4 -->
<g id="edge26" class="edge"><title>11&#45;&gt;4</title>
<path fill="none" stroke="black" d="M202.569,-222.872C207.917,-204.002 217.636,-173.014 230,-148 235.185,-137.511 242.185,-126.584 248.405,-117.631"/>
<polygon fill="black" stroke="black" points="251.302,-119.596 254.268,-109.425 245.607,-115.527 251.302,-119.596"/>
</g>
<!-- 18&#45;&gt;5 -->
<g id="edge21" class="edge"><title>18&#45;&gt;5</title>
<path fill="none" stroke="black" d="M365.758,-444.571C365.631,-435.402 365.472,-424.019 365.334,-414.026"/>
<polygon fill="black" stroke="black" points="368.832,-413.849 365.193,-403.898 361.832,-413.946 368.832,-413.849"/>
</g>
</g>
</svg>
