<?xml version="1.0" encoding="UTF-8" standalone="no"?>
<!DOCTYPE svg PUBLIC "-//W3C//DTD SVG 1.1//EN"
 "http://www.w3.org/Graphics/SVG/1.1/DTD/svg11.dtd">
<!-- Generated by graphviz version 2.30.1 (20130214.1330)
 -->
<!-- Title: G Pages: 1 -->
<svg width="140pt" height="174pt"
 viewBox="0.00 0.00 140.00 174.00" xmlns="http://www.w3.org/2000/svg" xmlns:xlink="http://www.w3.org/1999/xlink">
<g id="graph0" class="graph" transform="scale(1 1) rotate(0) translate(4 170)">
<title>G</title>
<polygon fill="white" stroke="white" points="-4,5 -4,-170 137,-170 137,5 -4,5"/>
<g id="clust1" class="cluster"><title>cluster_inputs</title>
<polygon fill="none" stroke="white" points="8,-124 8,-158 124,-158 124,-124 8,-124"/>
</g>
<g id="clust2" class="cluster"><title>cluster_outputs</title>
<polygon fill="none" stroke="white" points="11,-58 11,-104 75,-104 75,-58 11,-58"/>
</g>
<!-- 1 -->
<g id="node1" class="node"><title>1</title>
<polygon fill="lightgrey" stroke="black" points="76.25,-150 55.75,-150 55.75,-132 76.25,-132 76.25,-150"/>
<text text-anchor="middle" x="66" y="-138.8" font-family="Times New Roman,serif" font-size="9.00">1</text>
</g>
<!-- 4 -->
<g id="node4" class="node"><title>4</title>
<ellipse fill="lightblue" stroke="lightblue" cx="34" cy="-81" rx="14.2796" ry="14.7"/>
<text text-anchor="middle" x="34" y="-78.8" font-family="Times New Roman,serif" font-size="9.00">4</text>
</g>
<!-- 1&#45;&gt;4 -->
<g id="edge5" class="edge"><title>1&#45;&gt;4</title>
<path fill="none" stroke="black" d="M61.5505,-131.935C57.4901,-124.576 51.3046,-113.365 45.8227,-103.429"/>
<polygon fill="black" stroke="black" points="48.77,-101.525 40.8746,-94.4603 42.6409,-104.907 48.77,-101.525"/>
</g>
<!-- 5 -->
<g id="node5" class="node"><title>5</title>
<ellipse fill="none" stroke="black" cx="100" cy="-81" rx="14.2796" ry="14.7"/>
<text text-anchor="middle" x="100" y="-78.8" font-family="Times New Roman,serif" font-size="9.00">5</text>
</g>
<!-- 1&#45;&gt;5 -->
<g id="edge6" class="edge"><title>1&#45;&gt;5</title>
<path fill="none" stroke="black" d="M70.7276,-131.935C75.1421,-124.405 81.9208,-112.841 87.8436,-102.737"/>
<polygon fill="black" stroke="black" points="90.9122,-104.423 92.95,-94.0264 84.8733,-100.883 90.9122,-104.423"/>
</g>
<!-- 2 -->
<g id="node2" class="node"><title>2</title>
<polygon fill="lightgrey" stroke="black" points="37.25,-150 16.75,-150 16.75,-132 37.25,-132 37.25,-150"/>
<text text-anchor="middle" x="27" y="-138.8" font-family="Times New Roman,serif" font-size="9.00">2</text>
</g>
<!-- 2&#45;&gt;5 -->
<g id="edge8" class="edge"><title>2&#45;&gt;5</title>
<path fill="none" stroke="black" d="M36.0465,-131.891C39.1236,-129.267 42.6363,-126.413 46,-124 59.9343,-114.002 65.6297,-114.741 79,-104 80.5437,-102.76 82.0857,-101.411 83.5935,-100.012"/>
<polygon fill="black" stroke="black" points="86.1274,-102.427 90.6954,-92.868 81.1631,-97.4923 86.1274,-102.427"/>
</g>
<!-- 2&#45;&gt;4 -->
<g id="edge10" class="edge"><title>2&#45;&gt;4</title>
<path fill="none" stroke="black" d="M27.9733,-131.935C28.7922,-125.151 30.0061,-115.093 31.1303,-105.778"/>
<polygon fill="black" stroke="black" points="34.612,-106.139 32.3356,-95.7912 27.6625,-105.3 34.612,-106.139"/>
</g>
<!-- 3 -->
<g id="node3" class="node"><title>3</title>
<polygon fill="lightgrey" stroke="black" points="115.25,-150 94.75,-150 94.75,-132 115.25,-132 115.25,-150"/>
<text text-anchor="middle" x="105" y="-138.8" font-family="Times New Roman,serif" font-size="9.00">3</text>
</g>
<!-- 3&#45;&gt;4 -->
<g id="edge9" class="edge"><title>3&#45;&gt;4</title>
<path fill="none" stroke="black" d="M95.1278,-131.935C84.2731,-123.068 66.5737,-108.609 53.0066,-97.5266"/>
<polygon fill="black" stroke="black" points="55.1501,-94.7582 45.1914,-91.1423 50.7216,-100.179 55.1501,-94.7582"/>
</g>
<!-- 3&#45;&gt;5 -->
<g id="edge12" class="edge"><title>3&#45;&gt;5</title>
<path fill="none" stroke="black" d="M104.305,-131.935C103.734,-125.313 102.894,-115.572 102.108,-106.448"/>
<polygon fill="black" stroke="black" points="105.574,-105.907 101.228,-96.2441 98.5998,-106.508 105.574,-105.907"/>
</g>
<!-- 4&#45;&gt;5 -->
<g id="edge3" class="edge"><title>4&#45;&gt;5</title>
<path fill="none" stroke="black" d="M48.4375,-81C57.4131,-81 66.3887,-81 75.3643,-81"/>
<polygon fill="black" stroke="black" points="75.4981,-84.5001 85.498,-81 75.498,-77.5001 75.4981,-84.5001"/>
</g>
<!-- 4&#45;&gt;4 -->
<g id="edge4" class="edge"><title>4&#45;&gt;4</title>
<path fill="none" stroke="black" d="M45.483,-90.3933C55.4531,-94.678 66,-91.5469 66,-81 66,-74.0786 61.4578,-70.3509 55.5173,-69.817"/>
<polygon fill="black" stroke="black" points="54.7131,-66.4051 45.483,-71.6067 55.9423,-73.2963 54.7131,-66.4051"/>
</g>
<!-- 5&#45;&gt;4 -->
<g id="edge1" class="edge"><title>5&#45;&gt;4</title>
<path fill="none" stroke="black" d="M85.498,-81C76.5224,-81 67.5468,-81 58.5712,-81"/>
<polygon fill="black" stroke="black" points="58.4375,-77.5001 48.4375,-81 58.4375,-84.5001 58.4375,-77.5001"/>
</g>
<!-- 5&#45;&gt;5 -->
<g id="edge2" class="edge"><title>5&#45;&gt;5</title>
<path fill="none" stroke="cornflowerblue" stroke-dasharray="1,5" d="M111.483,-90.3933C121.453,-94.678 132,-91.5469 132,-81 132,-74.0786 127.458,-70.3509 121.517,-69.817"/>
<polygon fill="cornflowerblue" stroke="cornflowerblue" points="120.713,-66.4051 111.483,-71.6067 121.942,-73.2963 120.713,-66.4051"/>
</g>
<!-- 6 -->
<g id="node6" class="node"><title>6</title>
<ellipse fill="none" stroke="black" cx="100" cy="-15" rx="14.2796" ry="14.7"/>
<text text-anchor="middle" x="100" y="-12.8" font-family="Times New Roman,serif" font-size="9.00">6</text>
</g>
<!-- 5&#45;&gt;6 -->
<g id="edge7" class="edge"><title>5&#45;&gt;6</title>
<path fill="none" stroke="black" d="M94.4514,-67.0486C93.2869,-58.9811 92.9689,-48.3739 93.4976,-38.9196"/>
<polygon fill="black" stroke="black" points="96.9847,-39.2203 94.4541,-28.9321 90.0166,-38.5528 96.9847,-39.2203"/>
</g>
<!-- 6&#45;&gt;5 -->
<g id="edge11" class="edge"><title>6&#45;&gt;5</title>
<path fill="none" stroke="black" d="M105.546,-28.9321C106.712,-36.9956 107.031,-47.6017 106.504,-57.0578"/>
<polygon fill="black" stroke="black" points="103.016,-56.7609 105.549,-67.0486 109.984,-57.4271 103.016,-56.7609"/>
</g>
</g>
</svg>
