<?xml version="1.0" encoding="UTF-8" standalone="no"?>
<!DOCTYPE svg PUBLIC "-//W3C//DTD SVG 1.1//EN"
 "http://www.w3.org/Graphics/SVG/1.1/DTD/svg11.dtd">
<!-- Generated by graphviz version 2.30.1 (20130214.1330)
 -->
<!-- Title: G Pages: 1 -->
<svg width="362pt" height="536pt"
 viewBox="0.00 0.00 362.00 536.00" xmlns="http://www.w3.org/2000/svg" xmlns:xlink="http://www.w3.org/1999/xlink">
<g id="graph0" class="graph" transform="scale(1 1) rotate(0) translate(4 532)">
<title>G</title>
<polygon fill="white" stroke="white" points="-4,5 -4,-532 359,-532 359,5 -4,5"/>
<g id="clust1" class="cluster"><title>cluster_inputs</title>
<polygon fill="none" stroke="white" points="86,-486 86,-520 163,-520 163,-486 86,-486"/>
</g>
<g id="clust2" class="cluster"><title>cluster_outputs</title>
<polygon fill="none" stroke="white" points="221,-8 221,-54 267,-54 267,-8 221,-8"/>
</g>
<!-- 1 -->
<g id="node1" class="node"><title>1</title>
<polygon fill="lightgrey" stroke="black" points="115.25,-512 94.75,-512 94.75,-494 115.25,-494 115.25,-512"/>
<text text-anchor="middle" x="105" y="-500.8" font-family="Times New Roman,serif" font-size="9.00">1</text>
</g>
<!-- 5 -->
<g id="node8" class="node"><title>5</title>
<ellipse fill="none" stroke="black" cx="213" cy="-97" rx="14.2796" ry="14.7"/>
<text text-anchor="middle" x="213" y="-94.8" font-family="Times New Roman,serif" font-size="9.00">5</text>
</g>
<!-- 1&#45;&gt;5 -->
<g id="edge8" class="edge"><title>1&#45;&gt;5</title>
<path fill="none" stroke="black" d="M97.3142,-493.788C79.7155,-474.087 38,-421.913 38,-370 38,-370 38,-370 38,-228 38,-153.581 141.241,-116.788 189.128,-103.725"/>
<polygon fill="black" stroke="black" points="190.179,-107.068 198.975,-101.162 188.416,-100.294 190.179,-107.068"/>
</g>
<!-- 3 -->
<g id="node3" class="node"><title>3</title>
<ellipse fill="lightblue" stroke="lightblue" cx="244" cy="-31" rx="14.2796" ry="14.7"/>
<text text-anchor="middle" x="244" y="-28.8" font-family="Times New Roman,serif" font-size="9.00">3</text>
</g>
<!-- 1&#45;&gt;3 -->
<g id="edge14" class="edge"><title>1&#45;&gt;3</title>
<path fill="none" stroke="black" d="M94.5483,-495.764C67.9898,-479.036 0,-430.322 0,-370 0,-370 0,-370 0,-162 0,-63.2902 157.463,-39.2794 219.399,-33.653"/>
<polygon fill="black" stroke="black" points="219.787,-37.133 229.467,-32.8262 219.214,-30.1565 219.787,-37.133"/>
</g>
<!-- 2 -->
<g id="node2" class="node"><title>2</title>
<polygon fill="lightgrey" stroke="black" points="154.25,-512 133.75,-512 133.75,-494 154.25,-494 154.25,-512"/>
<text text-anchor="middle" x="144" y="-500.8" font-family="Times New Roman,serif" font-size="9.00">2</text>
</g>
<!-- 6 -->
<g id="node4" class="node"><title>6</title>
<ellipse fill="none" stroke="black" cx="190" cy="-369" rx="14.2796" ry="14.7"/>
<text text-anchor="middle" x="190" y="-366.8" font-family="Times New Roman,serif" font-size="9.00">6</text>
</g>
<!-- 2&#45;&gt;6 -->
<g id="edge1" class="edge"><title>2&#45;&gt;6</title>
<path fill="none" stroke="cornflowerblue" stroke-dasharray="1,5" d="M150.291,-493.693C156.449,-485.169 165.661,-471.309 171,-458 179.377,-437.12 184.34,-411.899 187.081,-393.82"/>
<polygon fill="cornflowerblue" stroke="cornflowerblue" points="190.558,-394.228 188.478,-383.839 183.625,-393.257 190.558,-394.228"/>
</g>
<!-- 11 -->
<g id="node10" class="node"><title>11</title>
<ellipse fill="none" stroke="black" cx="144" cy="-439" rx="18.0791" ry="18.2703"/>
<text text-anchor="middle" x="144" y="-436.8" font-family="Times New Roman,serif" font-size="9.00">11</text>
</g>
<!-- 2&#45;&gt;11 -->
<g id="edge6" class="edge"><title>2&#45;&gt;11</title>
<path fill="none" stroke="black" d="M144,-493.895C144,-487.145 144,-477.124 144,-467.548"/>
<polygon fill="black" stroke="black" points="147.5,-467.508 144,-457.508 140.5,-467.508 147.5,-467.508"/>
</g>
<!-- 2&#45;&gt;3 -->
<g id="edge10" class="edge"><title>2&#45;&gt;3</title>
<path fill="none" stroke="black" d="M154.414,-500.651C196.788,-494.528 354,-465.384 354,-370 354,-370 354,-370 354,-162 354,-107.644 297.265,-64.3121 265.287,-44.2047"/>
<polygon fill="black" stroke="black" points="266.983,-41.1399 256.618,-38.9408 263.349,-47.1231 266.983,-41.1399"/>
</g>
<!-- 2&#45;&gt;5 -->
<g id="edge16" class="edge"><title>2&#45;&gt;5</title>
<path fill="none" stroke="cornflowerblue" stroke-dasharray="1,5" d="M136.2,-493.809C118.338,-474.154 76,-422.073 76,-370 76,-370 76,-370 76,-228 76,-165.846 151.117,-124.46 190.107,-107.164"/>
<polygon fill="cornflowerblue" stroke="cornflowerblue" points="191.79,-110.251 199.614,-103.107 189.043,-103.813 191.79,-110.251"/>
</g>
<!-- 4 -->
<g id="node7" class="node"><title>4</title>
<ellipse fill="none" stroke="black" cx="311" cy="-163" rx="14.2796" ry="14.7"/>
<text text-anchor="middle" x="311" y="-160.8" font-family="Times New Roman,serif" font-size="9.00">4</text>
</g>
<!-- 2&#45;&gt;4 -->
<g id="edge18" class="edge"><title>2&#45;&gt;4</title>
<path fill="none" stroke="black" d="M154.378,-499.456C191.288,-489.727 314,-451.272 314,-370 314,-370 314,-370 314,-298 314,-259.55 312.75,-214.911 311.864,-188.09"/>
<polygon fill="black" stroke="black" points="315.362,-187.956 311.523,-178.081 308.366,-188.195 315.362,-187.956"/>
</g>
<!-- 7 -->
<g id="node5" class="node"><title>7</title>
<ellipse fill="none" stroke="black" cx="195" cy="-163" rx="14.2796" ry="14.7"/>
<text text-anchor="middle" x="195" y="-160.8" font-family="Times New Roman,serif" font-size="9.00">7</text>
</g>
<!-- 6&#45;&gt;7 -->
<g id="edge2" class="edge"><title>6&#45;&gt;7</title>
<path fill="none" stroke="cornflowerblue" stroke-dasharray="1,5" d="M197.184,-355.727C202.561,-345.881 209.558,-331.519 213,-318 224.417,-273.155 227.899,-259.205 218,-214 215.832,-204.099 211.512,-193.818 207.195,-185.172"/>
<polygon fill="cornflowerblue" stroke="cornflowerblue" points="210.219,-183.404 202.437,-176.213 204.036,-186.687 210.219,-183.404"/>
</g>
<!-- 8 -->
<g id="node6" class="node"><title>8</title>
<ellipse fill="none" stroke="black" cx="190" cy="-299" rx="14.2796" ry="14.7"/>
<text text-anchor="middle" x="190" y="-296.8" font-family="Times New Roman,serif" font-size="9.00">8</text>
</g>
<!-- 6&#45;&gt;8 -->
<g id="edge3" class="edge"><title>6&#45;&gt;8</title>
<path fill="none" stroke="black" d="M190,-353.91C190,-345.34 190,-334.163 190,-324.21"/>
<polygon fill="black" stroke="black" points="193.5,-324.072 190,-314.072 186.5,-324.072 193.5,-324.072"/>
</g>
<!-- 10 -->
<g id="node9" class="node"><title>10</title>
<ellipse fill="none" stroke="black" cx="128" cy="-299" rx="18.0791" ry="18.2703"/>
<text text-anchor="middle" x="128" y="-296.8" font-family="Times New Roman,serif" font-size="9.00">10</text>
</g>
<!-- 6&#45;&gt;10 -->
<g id="edge5" class="edge"><title>6&#45;&gt;10</title>
<path fill="none" stroke="black" d="M180.584,-357.672C171.691,-347.919 158.095,-333.007 146.956,-320.79"/>
<polygon fill="black" stroke="black" points="149.388,-318.264 140.065,-313.232 144.216,-322.98 149.388,-318.264"/>
</g>
<!-- 6&#45;&gt;5 -->
<g id="edge19" class="edge"><title>6&#45;&gt;5</title>
<path fill="none" stroke="cornflowerblue" stroke-dasharray="1,5" d="M200.908,-358.971C211.047,-349.834 225.53,-334.702 232,-318 258.371,-249.927 234.997,-161.399 221.292,-120.511"/>
<polygon fill="cornflowerblue" stroke="cornflowerblue" points="224.562,-119.258 217.972,-110.961 217.95,-121.556 224.562,-119.258"/>
</g>
<!-- 7&#45;&gt;5 -->
<g id="edge9" class="edge"><title>7&#45;&gt;5</title>
<path fill="none" stroke="black" d="M198.817,-148.427C201.037,-140.536 203.894,-130.377 206.462,-121.247"/>
<polygon fill="black" stroke="black" points="209.85,-122.127 209.188,-111.553 203.111,-120.232 209.85,-122.127"/>
</g>
<!-- 9 -->
<g id="node11" class="node"><title>9</title>
<ellipse fill="none" stroke="black" cx="195" cy="-229" rx="14.2796" ry="14.7"/>
<text text-anchor="middle" x="195" y="-226.8" font-family="Times New Roman,serif" font-size="9.00">9</text>
</g>
<!-- 8&#45;&gt;9 -->
<g id="edge7" class="edge"><title>8&#45;&gt;9</title>
<path fill="none" stroke="black" d="M191.036,-283.91C191.666,-275.34 192.488,-264.163 193.22,-254.21"/>
<polygon fill="black" stroke="black" points="196.722,-254.301 193.965,-244.072 189.741,-253.788 196.722,-254.301"/>
</g>
<!-- 8&#45;&gt;7 -->
<g id="edge12" class="edge"><title>8&#45;&gt;7</title>
<path fill="none" stroke="cornflowerblue" stroke-dasharray="1,5" d="M183.624,-285.474C176.079,-269.057 165.227,-239.367 171,-214 173.298,-203.904 177.899,-193.468 182.464,-184.758"/>
<polygon fill="cornflowerblue" stroke="cornflowerblue" points="185.664,-186.207 187.478,-175.769 179.55,-182.798 185.664,-186.207"/>
</g>
<!-- 4&#45;&gt;5 -->
<g id="edge4" class="edge"><title>4&#45;&gt;5</title>
<path fill="none" stroke="black" d="M298.983,-154.152C282.658,-143.491 253.237,-124.277 233.415,-111.332"/>
<polygon fill="black" stroke="black" points="235.095,-108.249 224.809,-105.712 231.268,-114.11 235.095,-108.249"/>
</g>
<!-- 4&#45;&gt;3 -->
<g id="edge15" class="edge"><title>4&#45;&gt;3</title>
<path fill="none" stroke="cornflowerblue" stroke-dasharray="1,5" d="M304.576,-149.535C293.199,-127.461 269.379,-81.2437 255.235,-53.8001"/>
<polygon fill="cornflowerblue" stroke="cornflowerblue" points="258.196,-51.9037 250.503,-44.6182 251.973,-55.1106 258.196,-51.9037"/>
</g>
<!-- 5&#45;&gt;3 -->
<g id="edge20" class="edge"><title>5&#45;&gt;3</title>
<path fill="none" stroke="black" d="M219.125,-83.3557C223.201,-74.9406 228.662,-63.6651 233.429,-53.8231"/>
<polygon fill="black" stroke="black" points="236.679,-55.1437 237.888,-44.6181 230.379,-52.0921 236.679,-55.1437"/>
</g>
<!-- 10&#45;&gt;7 -->
<g id="edge13" class="edge"><title>10&#45;&gt;7</title>
<path fill="none" stroke="black" d="M134.809,-281.667C142.071,-264.57 154.136,-237.057 166,-214 170.99,-204.302 176.97,-193.826 182.2,-184.981"/>
<polygon fill="black" stroke="black" points="185.362,-186.514 187.499,-176.137 179.357,-182.917 185.362,-186.514"/>
</g>
<!-- 11&#45;&gt;6 -->
<g id="edge11" class="edge"><title>11&#45;&gt;6</title>
<path fill="none" stroke="black" d="M153.981,-423.245C160.587,-413.48 169.33,-400.556 176.547,-389.887"/>
<polygon fill="black" stroke="black" points="179.467,-391.818 182.171,-381.574 173.669,-387.896 179.467,-391.818"/>
</g>
<!-- 9&#45;&gt;7 -->
<g id="edge17" class="edge"><title>9&#45;&gt;7</title>
<path fill="none" stroke="black" d="M195,-214.113C195,-206.481 195,-196.8 195,-187.985"/>
<polygon fill="black" stroke="black" points="198.5,-187.86 195,-177.86 191.5,-187.86 198.5,-187.86"/>
</g>
</g>
</svg>
