<?xml version="1.0" encoding="UTF-8" standalone="no"?>
<!DOCTYPE svg PUBLIC "-//W3C//DTD SVG 1.1//EN"
 "http://www.w3.org/Graphics/SVG/1.1/DTD/svg11.dtd">
<!-- Generated by graphviz version 2.30.1 (20130214.1330)
 -->
<!-- Title: G Pages: 1 -->
<svg width="163pt" height="256pt"
 viewBox="0.00 0.00 162.69 256.00" xmlns="http://www.w3.org/2000/svg" xmlns:xlink="http://www.w3.org/1999/xlink">
<g id="graph0" class="graph" transform="scale(1 1) rotate(0) translate(4 252)">
<title>G</title>
<polygon fill="white" stroke="white" points="-4,5 -4,-252 159.688,-252 159.688,5 -4,5"/>
<g id="clust1" class="cluster"><title>cluster_inputs</title>
<polygon fill="none" stroke="white" points="21.4554,-206 21.4554,-240 98.4554,-240 98.4554,-206 21.4554,-206"/>
</g>
<g id="clust2" class="cluster"><title>cluster_outputs</title>
<polygon fill="none" stroke="white" points="54.4554,-8 54.4554,-54 100.455,-54 100.455,-8 54.4554,-8"/>
</g>
<!-- 1 -->
<g id="node1" class="node"><title>1</title>
<polygon fill="lightgrey" stroke="black" points="50.7054,-232 30.2054,-232 30.2054,-214 50.7054,-214 50.7054,-232"/>
<text text-anchor="middle" x="40.4554" y="-220.8" font-family="Times New Roman,serif" font-size="9.00">1</text>
</g>
<!-- 4 -->
<g id="node5" class="node"><title>4</title>
<ellipse fill="none" stroke="black" cx="120.455" cy="-97" rx="14.2796" ry="14.7"/>
<text text-anchor="middle" x="120.455" y="-94.8" font-family="Times New Roman,serif" font-size="9.00">4</text>
</g>
<!-- 1&#45;&gt;4 -->
<g id="edge3" class="edge"><title>1&#45;&gt;4</title>
<path fill="none" stroke="cornflowerblue" stroke-dasharray="1,5" d="M49.5801,-213.997C52.6624,-211.38 56.1585,-208.504 59.4554,-206 77.0281,-192.654 87.8452,-196.108 100.455,-178 111.932,-161.52 116.836,-139.081 118.925,-122.161"/>
<polygon fill="cornflowerblue" stroke="cornflowerblue" points="122.433,-122.253 119.932,-111.958 115.467,-121.566 122.433,-122.253"/>
</g>
<!-- 5 -->
<g id="node6" class="node"><title>5</title>
<ellipse fill="none" stroke="black" cx="34.4554" cy="-97" rx="14.2796" ry="14.7"/>
<text text-anchor="middle" x="34.4554" y="-94.8" font-family="Times New Roman,serif" font-size="9.00">5</text>
</g>
<!-- 1&#45;&gt;5 -->
<g id="edge5" class="edge"><title>1&#45;&gt;5</title>
<path fill="none" stroke="black" d="M35.51,-213.933C30.5777,-205.376 23.3331,-191.285 20.4554,-178 16.2928,-158.783 20.8196,-136.763 25.8041,-120.697"/>
<polygon fill="black" stroke="black" points="29.1657,-121.682 29.059,-111.088 22.5357,-119.436 29.1657,-121.682"/>
</g>
<!-- 3 -->
<g id="node3" class="node"><title>3</title>
<ellipse fill="lightblue" stroke="lightblue" cx="77.4554" cy="-31" rx="14.2796" ry="14.7"/>
<text text-anchor="middle" x="77.4554" y="-28.8" font-family="Times New Roman,serif" font-size="9.00">3</text>
</g>
<!-- 1&#45;&gt;3 -->
<g id="edge6" class="edge"><title>1&#45;&gt;3</title>
<path fill="none" stroke="cornflowerblue" stroke-dasharray="1,5" d="M34.276,-213.75C28.2979,-205.272 19.5579,-191.445 15.4554,-178 2.9865,-137.135 -8.69729,-120.191 10.4554,-82 19.7229,-63.5203 39.4192,-50.1259 55.0703,-41.8787"/>
<polygon fill="cornflowerblue" stroke="cornflowerblue" points="56.7325,-44.9617 64.1631,-37.4094 53.6447,-38.6795 56.7325,-44.9617"/>
</g>
<!-- 6 -->
<g id="node4" class="node"><title>6</title>
<ellipse fill="none" stroke="black" cx="77.4554" cy="-163" rx="14.2796" ry="14.7"/>
<text text-anchor="middle" x="77.4554" y="-160.8" font-family="Times New Roman,serif" font-size="9.00">6</text>
</g>
<!-- 1&#45;&gt;6 -->
<g id="edge9" class="edge"><title>1&#45;&gt;6</title>
<path fill="none" stroke="black" d="M45.6001,-213.935C50.4041,-206.405 57.781,-194.841 64.2264,-184.737"/>
<polygon fill="black" stroke="black" points="67.3559,-186.339 69.7833,-176.026 61.4544,-182.575 67.3559,-186.339"/>
</g>
<!-- 2 -->
<g id="node2" class="node"><title>2</title>
<polygon fill="lightgrey" stroke="black" points="89.7054,-232 69.2054,-232 69.2054,-214 89.7054,-214 89.7054,-232"/>
<text text-anchor="middle" x="79.4554" y="-220.8" font-family="Times New Roman,serif" font-size="9.00">2</text>
</g>
<!-- 2&#45;&gt;6 -->
<g id="edge2" class="edge"><title>2&#45;&gt;6</title>
<path fill="none" stroke="black" d="M79.1773,-213.935C78.9489,-207.313 78.6131,-197.572 78.2984,-188.448"/>
<polygon fill="black" stroke="black" points="81.7892,-188.118 77.9466,-178.244 74.7934,-188.359 81.7892,-188.118"/>
</g>
<!-- 2&#45;&gt;3 -->
<g id="edge7" class="edge"><title>2&#45;&gt;3</title>
<path fill="none" stroke="cornflowerblue" stroke-dasharray="1,5" d="M89.9389,-219.179C106.501,-214.09 138.199,-201.638 151.455,-178 157.977,-166.371 152.259,-161.309 151.455,-148 149.674,-118.506 158.177,-107.62 143.455,-82 133.409,-64.5163 114.556,-51.1807 99.5645,-42.6966"/>
<polygon fill="cornflowerblue" stroke="cornflowerblue" points="100.875,-39.4293 90.4015,-37.8272 97.5895,-45.6107 100.875,-39.4293"/>
</g>
<!-- 2&#45;&gt;5 -->
<g id="edge10" class="edge"><title>2&#45;&gt;5</title>
<path fill="none" stroke="black" d="M73.6884,-213.951C67.8163,-205.409 58.833,-191.33 53.4554,-178 46.1655,-159.929 41.2478,-138.385 38.2451,-122.209"/>
<polygon fill="black" stroke="black" points="41.6274,-121.229 36.4666,-111.976 34.7308,-122.428 41.6274,-121.229"/>
</g>
<!-- 2&#45;&gt;4 -->
<g id="edge11" class="edge"><title>2&#45;&gt;4</title>
<path fill="none" stroke="black" d="M89.9324,-217.252C103.142,-210.612 125.238,-197.177 134.455,-178 143.307,-159.583 137.65,-136.38 131.075,-119.712"/>
<polygon fill="black" stroke="black" points="134.174,-118.061 126.983,-110.279 127.752,-120.846 134.174,-118.061"/>
</g>
<!-- 6&#45;&gt;4 -->
<g id="edge1" class="edge"><title>6&#45;&gt;4</title>
<path fill="none" stroke="black" d="M85.3422,-150.261C91.343,-141.33 99.7473,-128.821 106.829,-118.281"/>
<polygon fill="black" stroke="black" points="109.947,-119.917 112.619,-109.664 104.136,-116.013 109.947,-119.917"/>
</g>
<!-- 6&#45;&gt;3 -->
<g id="edge4" class="edge"><title>6&#45;&gt;3</title>
<path fill="none" stroke="black" d="M77.4554,-148.088C77.4554,-126.211 77.4554,-83.4788 77.4554,-56.4081"/>
<polygon fill="black" stroke="black" points="80.9555,-56.2063 77.4554,-46.2063 73.9555,-56.2064 80.9555,-56.2063"/>
</g>
<!-- 6&#45;&gt;5 -->
<g id="edge12" class="edge"><title>6&#45;&gt;5</title>
<path fill="none" stroke="black" d="M69.5685,-150.261C63.5677,-141.33 55.1635,-128.821 48.0816,-118.281"/>
<polygon fill="black" stroke="black" points="50.7744,-116.013 42.2922,-109.664 44.964,-119.917 50.7744,-116.013"/>
</g>
<!-- 4&#45;&gt;3 -->
<g id="edge8" class="edge"><title>4&#45;&gt;3</title>
<path fill="none" stroke="black" d="M112.569,-84.2614C106.568,-75.33 98.1635,-62.8213 91.0816,-52.2809"/>
<polygon fill="black" stroke="black" points="93.7744,-50.0128 85.2922,-43.6642 87.964,-53.9166 93.7744,-50.0128"/>
</g>
<!-- 5&#45;&gt;3 -->
<g id="edge13" class="edge"><title>5&#45;&gt;3</title>
<path fill="none" stroke="black" d="M42.3422,-84.2614C48.343,-75.33 56.7473,-62.8213 63.8292,-52.2809"/>
<polygon fill="black" stroke="black" points="66.9468,-53.9166 69.6185,-43.6642 61.1364,-50.0128 66.9468,-53.9166"/>
</g>
</g>
</svg>
