<?xml version="1.0" encoding="UTF-8" standalone="no"?>
<!DOCTYPE svg PUBLIC "-//W3C//DTD SVG 1.1//EN"
 "http://www.w3.org/Graphics/SVG/1.1/DTD/svg11.dtd">
<!-- Generated by graphviz version 2.30.1 (20130214.1330)
 -->
<!-- Title: G Pages: 1 -->
<svg width="176pt" height="256pt"
 viewBox="0.00 0.00 175.95 256.00" xmlns="http://www.w3.org/2000/svg" xmlns:xlink="http://www.w3.org/1999/xlink">
<g id="graph0" class="graph" transform="scale(1 1) rotate(0) translate(4 252)">
<title>G</title>
<polygon fill="white" stroke="white" points="-4,5 -4,-252 172.948,-252 172.948,5 -4,5"/>
<g id="clust1" class="cluster"><title>cluster_inputs</title>
<polygon fill="none" stroke="white" points="57,-206 57,-240 134,-240 134,-206 57,-206"/>
</g>
<g id="clust2" class="cluster"><title>cluster_outputs</title>
<polygon fill="none" stroke="white" points="72,-8 72,-54 118,-54 118,-8 72,-8"/>
</g>
<!-- 1 -->
<g id="node1" class="node"><title>1</title>
<polygon fill="lightgrey" stroke="black" points="86.25,-232 65.75,-232 65.75,-214 86.25,-214 86.25,-232"/>
<text text-anchor="middle" x="76" y="-220.8" font-family="Times New Roman,serif" font-size="9.00">1</text>
</g>
<!-- 3 -->
<g id="node3" class="node"><title>3</title>
<ellipse fill="lightblue" stroke="lightblue" cx="95" cy="-31" rx="14.2796" ry="14.7"/>
<text text-anchor="middle" x="95" y="-28.8" font-family="Times New Roman,serif" font-size="9.00">3</text>
</g>
<!-- 1&#45;&gt;3 -->
<g id="edge1" class="edge"><title>1&#45;&gt;3</title>
<path fill="none" stroke="cornflowerblue" stroke-dasharray="1,5" d="M75.5654,-213.77C74.9404,-200.089 74.0624,-171.817 76,-148 78.6142,-115.867 85.2376,-79.2172 89.9264,-55.8627"/>
<polygon fill="cornflowerblue" stroke="cornflowerblue" points="93.4019,-56.3374 91.9849,-45.8378 86.5449,-54.9294 93.4019,-56.3374"/>
</g>
<!-- 4 -->
<g id="node4" class="node"><title>4</title>
<ellipse fill="none" stroke="black" cx="100" cy="-163" rx="14.2796" ry="14.7"/>
<text text-anchor="middle" x="100" y="-160.8" font-family="Times New Roman,serif" font-size="9.00">4</text>
</g>
<!-- 1&#45;&gt;4 -->
<g id="edge3" class="edge"><title>1&#45;&gt;4</title>
<path fill="none" stroke="black" d="M79.3371,-213.935C82.2814,-206.82 86.7155,-196.104 90.7221,-186.421"/>
<polygon fill="black" stroke="black" points="94.0729,-187.478 94.6624,-176.899 87.6048,-184.801 94.0729,-187.478"/>
</g>
<!-- 6 -->
<g id="node6" class="node"><title>6</title>
<ellipse fill="none" stroke="black" cx="14" cy="-163" rx="14.2796" ry="14.7"/>
<text text-anchor="middle" x="14" y="-160.8" font-family="Times New Roman,serif" font-size="9.00">6</text>
</g>
<!-- 1&#45;&gt;6 -->
<g id="edge7" class="edge"><title>1&#45;&gt;6</title>
<path fill="none" stroke="black" d="M67.3792,-213.935C58.1874,-205.337 43.375,-191.48 31.6831,-180.542"/>
<polygon fill="black" stroke="black" points="33.8884,-177.813 24.1946,-173.537 29.1063,-182.924 33.8884,-177.813"/>
</g>
<!-- 2 -->
<g id="node2" class="node"><title>2</title>
<polygon fill="lightgrey" stroke="black" points="125.25,-232 104.75,-232 104.75,-214 125.25,-214 125.25,-232"/>
<text text-anchor="middle" x="115" y="-220.8" font-family="Times New Roman,serif" font-size="9.00">2</text>
</g>
<!-- 2&#45;&gt;3 -->
<g id="edge5" class="edge"><title>2&#45;&gt;3</title>
<path fill="none" stroke="black" d="M122.001,-213.789C139.947,-191.69 184.569,-129.425 161,-82 151.887,-63.664 132.483,-50.2533 117.061,-41.9635"/>
<polygon fill="black" stroke="black" points="118.608,-38.8239 108.1,-37.4654 115.467,-45.0799 118.608,-38.8239"/>
</g>
<!-- 5 -->
<g id="node5" class="node"><title>5</title>
<ellipse fill="none" stroke="black" cx="138" cy="-97" rx="14.2796" ry="14.7"/>
<text text-anchor="middle" x="138" y="-94.8" font-family="Times New Roman,serif" font-size="9.00">5</text>
</g>
<!-- 2&#45;&gt;5 -->
<g id="edge8" class="edge"><title>2&#45;&gt;5</title>
<path fill="none" stroke="black" d="M116.509,-213.864C119.93,-195.422 128.381,-149.858 133.609,-121.676"/>
<polygon fill="black" stroke="black" points="137.054,-122.289 135.437,-111.819 130.172,-121.013 137.054,-122.289"/>
</g>
<!-- 2&#45;&gt;4 -->
<g id="edge9" class="edge"><title>2&#45;&gt;4</title>
<path fill="none" stroke="black" d="M112.914,-213.935C111.141,-207.078 108.502,-196.876 106.072,-187.478"/>
<polygon fill="black" stroke="black" points="109.459,-186.596 103.567,-177.791 102.682,-188.349 109.459,-186.596"/>
</g>
<!-- 4&#45;&gt;5 -->
<g id="edge2" class="edge"><title>4&#45;&gt;5</title>
<path fill="none" stroke="black" d="M107.148,-149.962C112.349,-141.202 119.524,-129.118 125.645,-118.808"/>
<polygon fill="black" stroke="black" points="128.789,-120.369 130.885,-109.984 122.77,-116.796 128.789,-120.369"/>
</g>
<!-- 4&#45;&gt;3 -->
<g id="edge6" class="edge"><title>4&#45;&gt;3</title>
<path fill="none" stroke="black" d="M99.4649,-148.088C98.6235,-126.211 96.98,-83.4788 95.9388,-56.4081"/>
<polygon fill="black" stroke="black" points="99.4282,-56.0644 95.5464,-46.2063 92.4334,-56.3335 99.4282,-56.0644"/>
</g>
<!-- 5&#45;&gt;3 -->
<g id="edge10" class="edge"><title>5&#45;&gt;3</title>
<path fill="none" stroke="black" d="M130.113,-84.2614C124.112,-75.33 115.708,-62.8213 108.626,-52.2809"/>
<polygon fill="black" stroke="black" points="111.319,-50.0128 102.837,-43.6642 105.509,-53.9166 111.319,-50.0128"/>
</g>
<!-- 6&#45;&gt;3 -->
<g id="edge4" class="edge"><title>6&#45;&gt;3</title>
<path fill="none" stroke="black" d="M16.9147,-148.403C20.918,-131.76 29.2321,-103.181 43,-82 51.725,-68.5772 64.7018,-56.0927 75.509,-46.9562"/>
<polygon fill="black" stroke="black" points="78.0336,-49.4147 83.5883,-40.3927 73.6198,-43.9816 78.0336,-49.4147"/>
</g>
</g>
</svg>
