<?xml version="1.0" encoding="UTF-8" standalone="no"?>
<!DOCTYPE svg PUBLIC "-//W3C//DTD SVG 1.1//EN"
 "http://www.w3.org/Graphics/SVG/1.1/DTD/svg11.dtd">
<!-- Generated by graphviz version 2.30.1 (20130214.1330)
 -->
<!-- Title: G Pages: 1 -->
<svg width="604pt" height="454pt"
 viewBox="0.00 0.00 604.00 454.00" xmlns="http://www.w3.org/2000/svg" xmlns:xlink="http://www.w3.org/1999/xlink">
<g id="graph0" class="graph" transform="scale(1 1) rotate(0) translate(4 450)">
<title>G</title>
<polygon fill="white" stroke="white" points="-4,5 -4,-450 601,-450 601,5 -4,5"/>
<g id="clust1" class="cluster"><title>cluster_inputs</title>
<polygon fill="none" stroke="white" points="243,-404 243,-438 359,-438 359,-404 243,-404"/>
</g>
<g id="clust2" class="cluster"><title>cluster_outputs</title>
<polygon fill="none" stroke="white" points="325,-62 325,-108 389,-108 389,-62 325,-62"/>
</g>
<!-- 1 -->
<g id="node1" class="node"><title>1</title>
<polygon fill="lightgrey" stroke="black" points="311.25,-430 290.75,-430 290.75,-412 311.25,-412 311.25,-430"/>
<text text-anchor="middle" x="301" y="-418.8" font-family="Times New Roman,serif" font-size="9.00">1</text>
</g>
<!-- 6 -->
<g id="node6" class="node"><title>6</title>
<ellipse fill="none" stroke="black" cx="178" cy="-221" rx="14.2796" ry="14.7"/>
<text text-anchor="middle" x="178" y="-218.8" font-family="Times New Roman,serif" font-size="9.00">6</text>
</g>
<!-- 1&#45;&gt;6 -->
<g id="edge5" class="edge"><title>1&#45;&gt;6</title>
<path fill="none" stroke="black" d="M294.663,-411.944C287.78,-403.162 276.497,-388.667 267,-376 245.242,-346.98 237.411,-341.25 219,-310 206.354,-288.535 194.643,-262.52 187.003,-244.365"/>
<polygon fill="black" stroke="black" points="190.154,-242.826 183.098,-234.922 183.685,-245.501 190.154,-242.826"/>
</g>
<!-- 11 -->
<g id="node11" class="node"><title>11</title>
<ellipse fill="none" stroke="black" cx="246" cy="-291" rx="18.0791" ry="18.2703"/>
<text text-anchor="middle" x="246" y="-288.8" font-family="Times New Roman,serif" font-size="9.00">11</text>
</g>
<!-- 1&#45;&gt;11 -->
<g id="edge8" class="edge"><title>1&#45;&gt;11</title>
<path fill="none" stroke="black" d="M297.56,-411.993C289.573,-393.406 269.497,-346.684 256.883,-317.328"/>
<polygon fill="black" stroke="black" points="260.083,-315.91 252.92,-308.104 253.652,-318.673 260.083,-315.91"/>
</g>
<!-- 5 -->
<g id="node5" class="node"><title>5</title>
<ellipse fill="none" stroke="black" cx="155" cy="-155" rx="14.2796" ry="14.7"/>
<text text-anchor="middle" x="155" y="-152.8" font-family="Times New Roman,serif" font-size="9.00">5</text>
</g>
<!-- 1&#45;&gt;5 -->
<g id="edge16" class="edge"><title>1&#45;&gt;5</title>
<path fill="none" stroke="black" d="M290.942,-411.71C287.797,-409.184 284.289,-406.433 281,-404 263.261,-390.876 255.516,-391.69 240,-376 188.653,-324.076 172.64,-306.605 154,-236 149.16,-217.668 149.766,-196.141 151.386,-180.038"/>
<polygon fill="black" stroke="black" points="154.891,-180.21 152.615,-169.862 147.941,-179.37 154.891,-180.21"/>
</g>
<!-- 4 -->
<g id="node4" class="node"><title>4</title>
<ellipse fill="lightblue" stroke="lightblue" cx="348" cy="-85" rx="14.2796" ry="14.7"/>
<text text-anchor="middle" x="348" y="-82.8" font-family="Times New Roman,serif" font-size="9.00">4</text>
</g>
<!-- 1&#45;&gt;4 -->
<g id="edge25" class="edge"><title>1&#45;&gt;4</title>
<path fill="none" stroke="black" d="M310.969,-411.877C320.412,-403.705 334.394,-390.294 343,-376 391.879,-294.816 390.882,-264.495 398,-170 399.002,-156.704 402.865,-152.414 398,-140 391.848,-124.301 378.752,-110.438 367.505,-100.689"/>
<polygon fill="black" stroke="black" points="369.723,-97.9812 359.769,-94.3508 365.286,-103.396 369.723,-97.9812"/>
</g>
<!-- 9 -->
<g id="node10" class="node"><title>9</title>
<ellipse fill="none" stroke="black" cx="320" cy="-361" rx="14.2796" ry="14.7"/>
<text text-anchor="middle" x="320" y="-358.8" font-family="Times New Roman,serif" font-size="9.00">9</text>
</g>
<!-- 1&#45;&gt;9 -->
<g id="edge27" class="edge"><title>1&#45;&gt;9</title>
<path fill="none" stroke="black" d="M303.642,-411.935C305.918,-404.986 309.32,-394.603 312.432,-385.102"/>
<polygon fill="black" stroke="black" points="315.842,-385.935 315.629,-375.343 309.19,-383.756 315.842,-385.935"/>
</g>
<!-- 8 -->
<g id="node7" class="node"><title>8</title>
<ellipse fill="none" stroke="black" cx="122" cy="-15" rx="14.2796" ry="14.7"/>
<text text-anchor="middle" x="122" y="-12.8" font-family="Times New Roman,serif" font-size="9.00">8</text>
</g>
<!-- 1&#45;&gt;8 -->
<g id="edge37" class="edge"><title>1&#45;&gt;8</title>
<path fill="none" stroke="black" d="M310.049,-411.895C313.126,-409.271 316.639,-406.417 320,-404 339.433,-390.028 350.011,-393.81 366,-376 387.649,-351.884 387.425,-340.961 397,-310 429.571,-204.685 474.557,-136.166 393,-62 357.021,-29.2812 206.556,-19.5032 146.707,-16.8764"/>
<polygon fill="black" stroke="black" points="146.769,-13.3761 136.635,-16.4652 146.484,-20.3702 146.769,-13.3761"/>
</g>
<!-- 7 -->
<g id="node12" class="node"><title>7</title>
<ellipse fill="none" stroke="black" cx="101" cy="-85" rx="14.2796" ry="14.7"/>
<text text-anchor="middle" x="101" y="-82.8" font-family="Times New Roman,serif" font-size="9.00">7</text>
</g>
<!-- 1&#45;&gt;7 -->
<g id="edge38" class="edge"><title>1&#45;&gt;7</title>
<path fill="none" stroke="black" d="M292.069,-411.88C288.753,-409.136 284.858,-406.211 281,-404 250.853,-386.719 240.334,-388.729 208,-376 115.231,-339.48 0,-391.698 0,-292 0,-292 0,-292 0,-220 0,-166.934 51.1363,-121.542 80.6371,-99.7702"/>
<polygon fill="black" stroke="black" points="82.9108,-102.447 89.0174,-93.7894 78.8444,-96.7496 82.9108,-102.447"/>
</g>
<!-- 2 -->
<g id="node2" class="node"><title>2</title>
<polygon fill="lightgrey" stroke="black" points="350.25,-430 329.75,-430 329.75,-412 350.25,-412 350.25,-430"/>
<text text-anchor="middle" x="340" y="-418.8" font-family="Times New Roman,serif" font-size="9.00">2</text>
</g>
<!-- 2&#45;&gt;8 -->
<g id="edge2" class="edge"><title>2&#45;&gt;8</title>
<path fill="none" stroke="black" d="M350.353,-419.742C398.246,-417.954 596,-403.803 596,-292 596,-292 596,-292 596,-154 596,-59.4026 243.572,-25.3376 146.496,-17.7488"/>
<polygon fill="black" stroke="black" points="146.681,-14.2528 136.445,-16.9874 146.152,-21.2328 146.681,-14.2528"/>
</g>
<!-- 2&#45;&gt;5 -->
<g id="edge7" class="edge"><title>2&#45;&gt;5</title>
<path fill="none" stroke="black" d="M344.455,-411.866C348.897,-403.254 355.42,-389.119 358,-376 367.214,-329.143 360.616,-309.462 331,-272 288.888,-218.731 215.359,-181.741 178.08,-165.416"/>
<polygon fill="black" stroke="black" points="179.155,-162.069 168.583,-161.364 176.407,-168.508 179.155,-162.069"/>
</g>
<!-- 2&#45;&gt;9 -->
<g id="edge12" class="edge"><title>2&#45;&gt;9</title>
<path fill="none" stroke="black" d="M337.219,-411.935C334.797,-404.912 331.166,-394.382 327.862,-384.799"/>
<polygon fill="black" stroke="black" points="331.17,-383.656 324.601,-375.343 324.552,-385.937 331.17,-383.656"/>
</g>
<!-- 2&#45;&gt;6 -->
<g id="edge22" class="edge"><title>2&#45;&gt;6</title>
<path fill="none" stroke="black" d="M340.718,-411.899C341.462,-403.078 342.573,-388.55 343,-376 343.454,-362.674 346.403,-358.892 343,-346 333.347,-309.436 329.423,-296.945 301,-272 272.221,-246.742 229.002,-233.211 202.199,-226.822"/>
<polygon fill="black" stroke="black" points="202.659,-223.339 192.137,-224.576 201.134,-230.171 202.659,-223.339"/>
</g>
<!-- 2&#45;&gt;4 -->
<g id="edge40" class="edge"><title>2&#45;&gt;4</title>
<path fill="none" stroke="black" d="M348,-411.751C370.951,-387.416 436.727,-312.801 458,-236 469.389,-194.881 480.564,-176.212 458,-140 439.311,-110.007 398.561,-96.2009 372.249,-90.2039"/>
<polygon fill="black" stroke="black" points="372.792,-86.7422 362.291,-88.1478 371.376,-93.5976 372.792,-86.7422"/>
</g>
<!-- 3 -->
<g id="node3" class="node"><title>3</title>
<polygon fill="lightgrey" stroke="black" points="272.25,-430 251.75,-430 251.75,-412 272.25,-412 272.25,-430"/>
<text text-anchor="middle" x="262" y="-418.8" font-family="Times New Roman,serif" font-size="9.00">3</text>
</g>
<!-- 3&#45;&gt;6 -->
<g id="edge18" class="edge"><title>3&#45;&gt;6</title>
<path fill="none" stroke="black" d="M251.623,-418.61C220.254,-414.177 127.496,-399.279 110,-376 76.6334,-331.605 130.265,-268.268 160.128,-238.569"/>
<polygon fill="black" stroke="black" points="162.732,-240.92 167.485,-231.451 157.864,-235.889 162.732,-240.92"/>
</g>
<!-- 3&#45;&gt;4 -->
<g id="edge39" class="edge"><title>3&#45;&gt;4</title>
<path fill="none" stroke="black" d="M256.018,-411.855C240.225,-389.306 199.903,-324.276 219,-272 239.346,-216.304 272.167,-219.377 305,-170 318.195,-150.157 330.277,-125.745 338.251,-108.362"/>
<polygon fill="black" stroke="black" points="341.54,-109.583 342.449,-99.0276 335.156,-106.712 341.54,-109.583"/>
</g>
<!-- 4&#45;&gt;4 -->
<g id="edge14" class="edge"><title>4&#45;&gt;4</title>
<path fill="none" stroke="black" d="M358.488,-95.4301C368.738,-101.192 380,-97.7148 380,-85 380,-76.4572 374.916,-72.0847 368.471,-71.8824"/>
<polygon fill="black" stroke="black" points="367.235,-68.5906 358.488,-74.5699 369.054,-75.3499 367.235,-68.5906"/>
</g>
<!-- 4&#45;&gt;5 -->
<g id="edge24" class="edge"><title>4&#45;&gt;5</title>
<path fill="none" stroke="black" d="M334.1,-89.7367C300.801,-100.058 217.565,-129.2 177.264,-144.442"/>
<polygon fill="black" stroke="black" points="175.857,-141.232 167.776,-148.084 178.366,-147.767 175.857,-141.232"/>
</g>
<!-- 4&#45;&gt;6 -->
<g id="edge33" class="edge"><title>4&#45;&gt;6</title>
<path fill="none" stroke="black" d="M340.16,-97.5551C327.886,-114.989 302.657,-148.284 275,-170 252.054,-188.017 221.617,-202.449 201.003,-211.091"/>
<polygon fill="black" stroke="black" points="199.424,-207.955 191.479,-214.965 202.061,-214.439 199.424,-207.955"/>
</g>
<!-- 5&#45;&gt;6 -->
<g id="edge1" class="edge"><title>5&#45;&gt;6</title>
<path fill="none" stroke="black" d="M164.138,-166.893C168.413,-174.924 172.891,-186.158 176.004,-196.226"/>
<polygon fill="black" stroke="black" points="172.69,-197.379 178.688,-206.113 179.446,-195.545 172.69,-197.379"/>
</g>
<!-- 5&#45;&gt;8 -->
<g id="edge9" class="edge"><title>5&#45;&gt;8</title>
<path fill="none" stroke="black" d="M151.776,-140.517C146.171,-117.08 134.568,-68.559 127.617,-39.4896"/>
<polygon fill="black" stroke="black" points="131.016,-38.6542 125.286,-29.7424 124.208,-40.2823 131.016,-38.6542"/>
</g>
<!-- 5&#45;&gt;5 -->
<g id="edge11" class="edge"><title>5&#45;&gt;5</title>
<path fill="none" stroke="black" d="M165.819,-165.006C175.979,-170.195 187,-166.859 187,-155 187,-147.032 182.025,-142.912 175.679,-142.639"/>
<polygon fill="black" stroke="black" points="174.733,-139.267 165.819,-144.994 176.359,-146.075 174.733,-139.267"/>
</g>
<!-- 12 -->
<g id="node9" class="node"><title>12</title>
<ellipse fill="none" stroke="black" cx="190" cy="-85" rx="18.0791" ry="18.2703"/>
<text text-anchor="middle" x="190" y="-82.8" font-family="Times New Roman,serif" font-size="9.00">12</text>
</g>
<!-- 5&#45;&gt;12 -->
<g id="edge15" class="edge"><title>5&#45;&gt;12</title>
<path fill="none" stroke="black" d="M156.659,-139.91C160.203,-130.643 166.289,-118.329 172.426,-107.81"/>
<polygon fill="black" stroke="black" points="175.497,-109.497 177.769,-99.1489 169.54,-105.822 175.497,-109.497"/>
</g>
<!-- 5&#45;&gt;4 -->
<g id="edge21" class="edge"><title>5&#45;&gt;4</title>
<path fill="none" stroke="black" d="M168.952,-150.247C202.243,-139.925 285.242,-110.867 325.581,-95.6171"/>
<polygon fill="black" stroke="black" points="327.002,-98.8206 335.084,-91.9701 324.494,-92.2853 327.002,-98.8206"/>
</g>
<!-- 10 -->
<g id="node8" class="node"><title>10</title>
<ellipse fill="none" stroke="black" cx="245" cy="-85" rx="18.0791" ry="18.2703"/>
<text text-anchor="middle" x="245" y="-82.8" font-family="Times New Roman,serif" font-size="9.00">10</text>
</g>
<!-- 5&#45;&gt;10 -->
<g id="edge32" class="edge"><title>5&#45;&gt;10</title>
<path fill="none" stroke="black" d="M163.559,-142.398C174.469,-133.168 192.447,-119.876 208,-108 211.851,-105.059 215.968,-101.857 220.086,-98.8295"/>
<polygon fill="black" stroke="black" points="222.251,-101.587 228.455,-92.9987 218.249,-95.8438 222.251,-101.587"/>
</g>
<!-- 5&#45;&gt;7 -->
<g id="edge35" class="edge"><title>5&#45;&gt;7</title>
<path fill="none" stroke="black" d="M146.324,-143.075C138.185,-132.825 125.839,-117.279 116.087,-104.999"/>
<polygon fill="black" stroke="black" points="118.794,-102.779 109.834,-97.1242 113.312,-107.132 118.794,-102.779"/>
</g>
<!-- 6&#45;&gt;7 -->
<g id="edge10" class="edge"><title>6&#45;&gt;7</title>
<path fill="none" stroke="black" d="M165.119,-214.234C151.878,-205.582 133.186,-188.296 122,-170 110.428,-151.072 102.412,-127.022 99.1742,-109.51"/>
<polygon fill="black" stroke="black" points="102.634,-108.977 97.7865,-99.5562 95.7009,-109.944 102.634,-108.977"/>
</g>
<!-- 6&#45;&gt;4 -->
<g id="edge20" class="edge"><title>6&#45;&gt;4</title>
<path fill="none" stroke="black" d="M189.047,-211.057C207.427,-196.203 245.481,-165.547 278,-140 294.992,-126.651 314.464,-111.653 328.551,-100.857"/>
<polygon fill="black" stroke="black" points="330.742,-103.588 336.555,-94.7305 326.487,-98.0294 330.742,-103.588"/>
</g>
<!-- 6&#45;&gt;5 -->
<g id="edge29" class="edge"><title>6&#45;&gt;5</title>
<path fill="none" stroke="black" d="M168.881,-209.143C164.651,-201.203 160.218,-190.118 157.105,-180.126"/>
<polygon fill="black" stroke="black" points="160.426,-179.002 154.403,-170.286 153.676,-180.856 160.426,-179.002"/>
</g>
<!-- 6&#45;&gt;8 -->
<g id="edge30" class="edge"><title>6&#45;&gt;8</title>
<path fill="none" stroke="black" d="M164.605,-215.241C148.273,-207.151 122.348,-189.668 105,-170 83.7728,-145.935 76.529,-138.935 68,-108 62.5661,-88.2909 60.2801,-80.9309 68,-62 74.1103,-47.0161 87.7119,-34.2621 100.002,-26.0114"/>
<polygon fill="black" stroke="black" points="101.836,-28.9925 108.593,-20.832 98.2218,-22.9976 101.836,-28.9925"/>
</g>
<!-- 8&#45;&gt;6 -->
<g id="edge19" class="edge"><title>8&#45;&gt;6</title>
<path fill="none" stroke="black" d="M113.432,-27.2108C104.443,-35.4723 91.8216,-47.724 86,-62 78.2801,-80.9309 80.5661,-88.2909 86,-108 94.529,-138.935 101.773,-145.935 123,-170 134.149,-182.639 148.839,-194.376 160.417,-203.298"/>
<polygon fill="black" stroke="black" points="158.49,-206.23 168.554,-209.54 162.75,-200.676 158.49,-206.23"/>
</g>
<!-- 10&#45;&gt;6 -->
<g id="edge3" class="edge"><title>10&#45;&gt;6</title>
<path fill="none" stroke="black" d="M237.055,-101.889C225.103,-125.793 202.462,-171.077 188.952,-198.097"/>
<polygon fill="black" stroke="black" points="185.766,-196.642 184.424,-207.152 192.027,-199.773 185.766,-196.642"/>
</g>
<!-- 10&#45;&gt;4 -->
<g id="edge23" class="edge"><title>10&#45;&gt;4</title>
<path fill="none" stroke="black" d="M263.508,-85C283.46,-85 303.413,-85 323.365,-85"/>
<polygon fill="black" stroke="black" points="323.478,-88.5001 333.478,-85 323.478,-81.5001 323.478,-88.5001"/>
</g>
<!-- 10&#45;&gt;5 -->
<g id="edge31" class="edge"><title>10&#45;&gt;5</title>
<path fill="none" stroke="black" d="M235.252,-100.746C232.259,-103.184 229.046,-105.674 226,-108 210.096,-120.144 191.655,-133.769 177.261,-143.017"/>
<polygon fill="black" stroke="black" points="175.158,-140.199 168.453,-148.402 178.81,-146.172 175.158,-140.199"/>
</g>
<!-- 12&#45;&gt;5 -->
<g id="edge4" class="edge"><title>12&#45;&gt;5</title>
<path fill="none" stroke="black" d="M187.103,-103.2C183.042,-113.061 176.713,-125.438 170.601,-135.507"/>
<polygon fill="black" stroke="black" points="167.62,-133.671 165.12,-143.966 173.495,-137.477 167.62,-133.671"/>
</g>
<!-- 9&#45;&gt;4 -->
<g id="edge6" class="edge"><title>9&#45;&gt;4</title>
<path fill="none" stroke="cornflowerblue" stroke-dasharray="1,5" d="M326.77,-347.536C331.98,-337.585 339.097,-323.175 344,-310 366.488,-249.575 373.481,-233.908 382,-170 383.762,-156.784 385.697,-152.811 382,-140 378.331,-127.287 370.685,-114.682 363.571,-104.852"/>
<polygon fill="cornflowerblue" stroke="cornflowerblue" points="366.174,-102.495 357.317,-96.6809 360.616,-106.749 366.174,-102.495"/>
</g>
<!-- 9&#45;&gt;11 -->
<g id="edge17" class="edge"><title>9&#45;&gt;11</title>
<path fill="none" stroke="black" d="M309.711,-350.545C298.689,-340.417 280.896,-324.067 266.912,-311.216"/>
<polygon fill="black" stroke="black" points="268.929,-308.317 259.198,-304.128 264.193,-313.471 268.929,-308.317"/>
</g>
<!-- 9&#45;&gt;10 -->
<g id="edge26" class="edge"><title>9&#45;&gt;10</title>
<path fill="none" stroke="black" d="M317.375,-346.202C313.985,-328.807 307.717,-298.031 301,-272 286.16,-214.492 265.235,-148.08 253.621,-112.232"/>
<polygon fill="black" stroke="black" points="256.892,-110.973 250.468,-102.548 250.235,-113.14 256.892,-110.973"/>
</g>
<!-- 9&#45;&gt;6 -->
<g id="edge28" class="edge"><title>9&#45;&gt;6</title>
<path fill="none" stroke="black" d="M315.659,-346.523C309.047,-327.789 294.866,-293.734 273,-272 252.532,-251.656 222.069,-237.63 201.191,-229.722"/>
<polygon fill="black" stroke="black" points="202.118,-226.336 191.523,-226.236 199.743,-232.921 202.118,-226.336"/>
</g>
<!-- 11&#45;&gt;6 -->
<g id="edge41" class="edge"><title>11&#45;&gt;6</title>
<path fill="none" stroke="black" d="M233.528,-277.528C222.834,-266.834 207.314,-251.314 195.398,-239.398"/>
<polygon fill="black" stroke="black" points="197.722,-236.772 188.176,-232.176 192.772,-241.722 197.722,-236.772"/>
</g>
<!-- 7&#45;&gt;6 -->
<g id="edge13" class="edge"><title>7&#45;&gt;6</title>
<path fill="none" stroke="black" d="M109.27,-97.2473C116.437,-113.997 125.38,-146.087 140,-170 146.687,-180.938 156.057,-191.515 164.004,-200.102"/>
<polygon fill="black" stroke="black" points="161.677,-202.739 171.054,-207.672 166.8,-197.968 161.677,-202.739"/>
</g>
<!-- 7&#45;&gt;8 -->
<g id="edge34" class="edge"><title>7&#45;&gt;8</title>
<path fill="none" stroke="black" d="M105.149,-70.5654C107.91,-61.6244 111.61,-49.6441 114.839,-39.1871"/>
<polygon fill="black" stroke="black" points="118.253,-39.9942 117.86,-29.4067 111.565,-37.9287 118.253,-39.9942"/>
</g>
<!-- 7&#45;&gt;4 -->
<g id="edge36" class="edge"><title>7&#45;&gt;4</title>
<path fill="none" stroke="black" d="M112.771,-93.9203C126.247,-103.522 149.387,-118.198 172,-124 211.176,-134.051 223.487,-132.632 263,-124 285.939,-118.989 310.087,-107.193 326.757,-97.8781"/>
<polygon fill="black" stroke="black" points="328.731,-100.78 335.642,-92.7499 325.232,-94.7172 328.731,-100.78"/>
</g>
</g>
</svg>
