<?xml version="1.0" encoding="UTF-8" standalone="no"?>
<!DOCTYPE svg PUBLIC "-//W3C//DTD SVG 1.1//EN"
 "http://www.w3.org/Graphics/SVG/1.1/DTD/svg11.dtd">
<!-- Generated by graphviz version 2.30.1 (20130214.1330)
 -->
<!-- Title: G Pages: 1 -->
<svg width="214pt" height="322pt"
 viewBox="0.00 0.00 213.80 322.00" xmlns="http://www.w3.org/2000/svg" xmlns:xlink="http://www.w3.org/1999/xlink">
<g id="graph0" class="graph" transform="scale(1 1) rotate(0) translate(4 318)">
<title>G</title>
<polygon fill="white" stroke="white" points="-4,5 -4,-318 210.798,-318 210.798,5 -4,5"/>
<g id="clust1" class="cluster"><title>cluster_inputs</title>
<polygon fill="none" stroke="white" points="20.0131,-272 20.0131,-306 97.0131,-306 97.0131,-272 20.0131,-272"/>
</g>
<g id="clust2" class="cluster"><title>cluster_outputs</title>
<polygon fill="none" stroke="white" points="76.0131,-8 76.0131,-54 122.013,-54 122.013,-8 76.0131,-8"/>
</g>
<!-- 1 -->
<g id="node1" class="node"><title>1</title>
<polygon fill="lightgrey" stroke="black" points="49.2631,-298 28.7631,-298 28.7631,-280 49.2631,-280 49.2631,-298"/>
<text text-anchor="middle" x="39.0131" y="-286.8" font-family="Times New Roman,serif" font-size="9.00">1</text>
</g>
<!-- 3 -->
<g id="node3" class="node"><title>3</title>
<ellipse fill="lightblue" stroke="lightblue" cx="99.0131" cy="-31" rx="14.2796" ry="14.7"/>
<text text-anchor="middle" x="99.0131" y="-28.8" font-family="Times New Roman,serif" font-size="9.00">3</text>
</g>
<!-- 1&#45;&gt;3 -->
<g id="edge4" class="edge"><title>1&#45;&gt;3</title>
<path fill="none" stroke="black" d="M34.1084,-279.924C29.2093,-271.36 21.9914,-257.263 19.0131,-244 3.2369,-173.744 -14.9579,-144.377 21.0131,-82 33.0135,-61.1902 57.5578,-47.6439 75.9264,-39.9686"/>
<polygon fill="black" stroke="black" points="77.3215,-43.1816 85.377,-36.2997 74.7881,-36.6561 77.3215,-43.1816"/>
</g>
<!-- 6 -->
<g id="node5" class="node"><title>6</title>
<ellipse fill="none" stroke="black" cx="45.0131" cy="-97" rx="14.2796" ry="14.7"/>
<text text-anchor="middle" x="45.0131" y="-94.8" font-family="Times New Roman,serif" font-size="9.00">6</text>
</g>
<!-- 1&#45;&gt;6 -->
<g id="edge10" class="edge"><title>1&#45;&gt;6</title>
<path fill="none" stroke="black" d="M35.7892,-279.725C32.5755,-270.999 27.8602,-256.771 26.0131,-244 19.9055,-201.773 18.3085,-189.965 26.0131,-148 27.7487,-138.547 31.1865,-128.565 34.6665,-120.026"/>
<polygon fill="black" stroke="black" points="37.9066,-121.352 38.6716,-110.785 31.4838,-118.568 37.9066,-121.352"/>
</g>
<!-- 2 -->
<g id="node2" class="node"><title>2</title>
<polygon fill="lightgrey" stroke="black" points="88.2631,-298 67.7631,-298 67.7631,-280 88.2631,-280 88.2631,-298"/>
<text text-anchor="middle" x="78.0131" y="-286.8" font-family="Times New Roman,serif" font-size="9.00">2</text>
</g>
<!-- 7 -->
<g id="node4" class="node"><title>7</title>
<ellipse fill="none" stroke="black" cx="121.013" cy="-229" rx="14.2796" ry="14.7"/>
<text text-anchor="middle" x="121.013" y="-226.8" font-family="Times New Roman,serif" font-size="9.00">7</text>
</g>
<!-- 2&#45;&gt;7 -->
<g id="edge1" class="edge"><title>2&#45;&gt;7</title>
<path fill="none" stroke="black" d="M83.9921,-279.935C89.8333,-272.056 98.9475,-259.763 106.671,-249.346"/>
<polygon fill="black" stroke="black" points="109.585,-251.292 112.729,-241.174 103.961,-247.123 109.585,-251.292"/>
</g>
<!-- 2&#45;&gt;6 -->
<g id="edge7" class="edge"><title>2&#45;&gt;6</title>
<path fill="none" stroke="black" d="M76.5951,-279.836C71.874,-252.654 56.5667,-164.521 49.1357,-121.736"/>
<polygon fill="black" stroke="black" points="52.546,-120.918 47.3864,-111.664 45.6493,-122.116 52.546,-120.918"/>
</g>
<!-- 2&#45;&gt;3 -->
<g id="edge8" class="edge"><title>2&#45;&gt;3</title>
<path fill="none" stroke="cornflowerblue" stroke-dasharray="1,5" d="M88.5464,-287.628C111.933,-286.163 168.013,-278.989 192.013,-244 237.434,-177.783 155.316,-85.7992 117.065,-48.5972"/>
<polygon fill="cornflowerblue" stroke="cornflowerblue" points="119.286,-45.8793 109.63,-41.5192 114.46,-50.9493 119.286,-45.8793"/>
</g>
<!-- 5 -->
<g id="node6" class="node"><title>5</title>
<ellipse fill="none" stroke="black" cx="169.013" cy="-229" rx="14.2796" ry="14.7"/>
<text text-anchor="middle" x="169.013" y="-226.8" font-family="Times New Roman,serif" font-size="9.00">5</text>
</g>
<!-- 2&#45;&gt;5 -->
<g id="edge11" class="edge"><title>2&#45;&gt;5</title>
<path fill="none" stroke="black" d="M88.4519,-281.347C102.989,-272.081 129.642,-255.093 148.297,-243.204"/>
<polygon fill="black" stroke="black" points="150.418,-246.002 156.97,-237.676 146.656,-240.099 150.418,-246.002"/>
</g>
<!-- 4 -->
<g id="node7" class="node"><title>4</title>
<ellipse fill="none" stroke="black" cx="99.0131" cy="-163" rx="14.2796" ry="14.7"/>
<text text-anchor="middle" x="99.0131" y="-160.8" font-family="Times New Roman,serif" font-size="9.00">4</text>
</g>
<!-- 2&#45;&gt;4 -->
<g id="edge12" class="edge"><title>2&#45;&gt;4</title>
<path fill="none" stroke="black" d="M79.391,-279.864C82.5004,-261.503 90.1628,-216.259 94.9402,-188.049"/>
<polygon fill="black" stroke="black" points="98.4539,-188.263 96.6728,-177.819 91.5521,-187.094 98.4539,-188.263"/>
</g>
<!-- 7&#45;&gt;4 -->
<g id="edge6" class="edge"><title>7&#45;&gt;4</title>
<path fill="none" stroke="black" d="M116.455,-214.739C113.682,-206.673 110.066,-196.154 106.846,-186.786"/>
<polygon fill="black" stroke="black" points="110.126,-185.563 103.566,-177.244 103.507,-187.839 110.126,-185.563"/>
</g>
<!-- 6&#45;&gt;3 -->
<g id="edge2" class="edge"><title>6&#45;&gt;3</title>
<path fill="none" stroke="black" d="M54.1735,-85.1433C62.1343,-75.7082 73.8404,-61.8343 83.2956,-50.6281"/>
<polygon fill="black" stroke="black" points="86.2143,-52.5964 89.988,-42.6964 80.8642,-48.0823 86.2143,-52.5964"/>
</g>
<!-- 5&#45;&gt;4 -->
<g id="edge3" class="edge"><title>5&#45;&gt;4</title>
<path fill="none" stroke="black" d="M158.684,-218.557C147.724,-208.536 130.197,-192.511 116.969,-180.416"/>
<polygon fill="black" stroke="black" points="119.126,-177.647 109.384,-173.482 114.403,-182.813 119.126,-177.647"/>
</g>
<!-- 5&#45;&gt;3 -->
<g id="edge13" class="edge"><title>5&#45;&gt;3</title>
<path fill="none" stroke="black" d="M164.311,-214.836C152.556,-181.919 121.776,-95.7358 107.066,-54.5491"/>
<polygon fill="black" stroke="black" points="110.354,-53.3474 103.694,-45.1072 103.762,-55.7018 110.354,-53.3474"/>
</g>
<!-- 4&#45;&gt;6 -->
<g id="edge5" class="edge"><title>4&#45;&gt;6</title>
<path fill="none" stroke="black" d="M89.8527,-151.143C81.8919,-141.708 70.1858,-127.834 60.7306,-116.628"/>
<polygon fill="black" stroke="black" points="63.1619,-114.082 54.0382,-108.696 57.8119,-118.596 63.1619,-114.082"/>
</g>
<!-- 4&#45;&gt;3 -->
<g id="edge9" class="edge"><title>4&#45;&gt;3</title>
<path fill="none" stroke="cornflowerblue" stroke-dasharray="1,5" d="M99.0131,-148.088C99.0131,-126.211 99.0131,-83.4788 99.0131,-56.4081"/>
<polygon fill="cornflowerblue" stroke="cornflowerblue" points="102.513,-56.2063 99.0131,-46.2063 95.5132,-56.2064 102.513,-56.2063"/>
</g>
</g>
</svg>
