<?xml version="1.0" encoding="UTF-8" standalone="no"?>
<!DOCTYPE svg PUBLIC "-//W3C//DTD SVG 1.1//EN"
 "http://www.w3.org/Graphics/SVG/1.1/DTD/svg11.dtd">
<!-- Generated by graphviz version 2.30.1 (20130214.1330)
 -->
<!-- Title: G Pages: 1 -->
<svg width="347pt" height="256pt"
 viewBox="0.00 0.00 347.02 256.00" xmlns="http://www.w3.org/2000/svg" xmlns:xlink="http://www.w3.org/1999/xlink">
<g id="graph0" class="graph" transform="scale(1 1) rotate(0) translate(4 252)">
<title>G</title>
<polygon fill="white" stroke="white" points="-4,5 -4,-252 344.023,-252 344.023,5 -4,5"/>
<g id="clust1" class="cluster"><title>cluster_inputs</title>
<polygon fill="none" stroke="white" points="100.023,-206 100.023,-240 177.023,-240 177.023,-206 100.023,-206"/>
</g>
<g id="clust2" class="cluster"><title>cluster_outputs</title>
<polygon fill="none" stroke="white" points="113.023,-8 113.023,-54 159.023,-54 159.023,-8 113.023,-8"/>
</g>
<!-- 1 -->
<g id="node1" class="node"><title>1</title>
<polygon fill="lightgrey" stroke="black" points="129.273,-232 108.773,-232 108.773,-214 129.273,-214 129.273,-232"/>
<text text-anchor="middle" x="119.023" y="-220.8" font-family="Times New Roman,serif" font-size="9.00">1</text>
</g>
<!-- 3 -->
<g id="node3" class="node"><title>3</title>
<ellipse fill="lightblue" stroke="lightblue" cx="136.023" cy="-31" rx="14.2796" ry="14.7"/>
<text text-anchor="middle" x="136.023" y="-28.8" font-family="Times New Roman,serif" font-size="9.00">3</text>
</g>
<!-- 1&#45;&gt;3 -->
<g id="edge2" class="edge"><title>1&#45;&gt;3</title>
<path fill="none" stroke="cornflowerblue" stroke-dasharray="1,5" d="M108.49,-221.628C85.1031,-220.163 29.0232,-212.989 5.0229,-178 -2.51913,-167.005 0.0153537,-160.357 5.0229,-148 25.7016,-96.9706 82.766,-60.0517 114.328,-42.8424"/>
<polygon fill="cornflowerblue" stroke="cornflowerblue" points="116.026,-45.9039 123.235,-38.1405 112.758,-39.7133 116.026,-45.9039"/>
</g>
<!-- 4 -->
<g id="node6" class="node"><title>4</title>
<ellipse fill="none" stroke="black" cx="126.023" cy="-97" rx="14.2796" ry="14.7"/>
<text text-anchor="middle" x="126.023" y="-94.8" font-family="Times New Roman,serif" font-size="9.00">4</text>
</g>
<!-- 1&#45;&gt;4 -->
<g id="edge5" class="edge"><title>1&#45;&gt;4</title>
<path fill="none" stroke="cornflowerblue" stroke-dasharray="1,5" d="M111.872,-213.946C104.998,-205.62 95.0733,-191.909 91.0229,-178 87.2951,-165.198 87.0144,-160.717 91.0229,-148 94.7406,-136.206 102.342,-124.774 109.514,-115.826"/>
<polygon fill="cornflowerblue" stroke="cornflowerblue" points="112.296,-117.957 116.118,-108.076 106.968,-113.417 112.296,-117.957"/>
</g>
<!-- 8 -->
<g id="node4" class="node"><title>8</title>
<ellipse fill="none" stroke="black" cx="29.0229" cy="-163" rx="14.2796" ry="14.7"/>
<text text-anchor="middle" x="29.0229" y="-160.8" font-family="Times New Roman,serif" font-size="9.00">8</text>
</g>
<!-- 1&#45;&gt;8 -->
<g id="edge7" class="edge"><title>1&#45;&gt;8</title>
<path fill="none" stroke="black" d="M108.699,-215.347C94.3212,-206.081 67.9609,-189.093 49.5113,-177.204"/>
<polygon fill="black" stroke="black" points="51.2353,-174.151 40.9336,-171.676 47.4433,-180.035 51.2353,-174.151"/>
</g>
<!-- 7 -->
<g id="node7" class="node"><title>7</title>
<ellipse fill="none" stroke="black" cx="115.023" cy="-163" rx="14.2796" ry="14.7"/>
<text text-anchor="middle" x="115.023" y="-160.8" font-family="Times New Roman,serif" font-size="9.00">7</text>
</g>
<!-- 1&#45;&gt;7 -->
<g id="edge11" class="edge"><title>1&#45;&gt;7</title>
<path fill="none" stroke="black" d="M118.467,-213.935C118.01,-207.313 117.338,-197.572 116.709,-188.448"/>
<polygon fill="black" stroke="black" points="120.185,-187.98 116.005,-178.244 113.202,-188.461 120.185,-187.98"/>
</g>
<!-- 2 -->
<g id="node2" class="node"><title>2</title>
<polygon fill="lightgrey" stroke="black" points="168.273,-232 147.773,-232 147.773,-214 168.273,-214 168.273,-232"/>
<text text-anchor="middle" x="158.023" y="-220.8" font-family="Times New Roman,serif" font-size="9.00">2</text>
</g>
<!-- 9 -->
<g id="node5" class="node"><title>9</title>
<ellipse fill="none" stroke="black" cx="325.023" cy="-163" rx="14.2796" ry="14.7"/>
<text text-anchor="middle" x="325.023" y="-160.8" font-family="Times New Roman,serif" font-size="9.00">9</text>
</g>
<!-- 2&#45;&gt;9 -->
<g id="edge3" class="edge"><title>2&#45;&gt;9</title>
<path fill="none" stroke="black" d="M168.587,-219.182C191.933,-212.837 249.536,-196.525 296.023,-178 298.431,-177.04 300.919,-175.969 303.378,-174.858"/>
<polygon fill="black" stroke="black" points="304.961,-177.98 312.492,-170.527 301.957,-171.658 304.961,-177.98"/>
</g>
<!-- 6 -->
<g id="node8" class="node"><title>6</title>
<ellipse fill="none" stroke="black" cx="201.023" cy="-163" rx="14.2796" ry="14.7"/>
<text text-anchor="middle" x="201.023" y="-160.8" font-family="Times New Roman,serif" font-size="9.00">6</text>
</g>
<!-- 2&#45;&gt;6 -->
<g id="edge8" class="edge"><title>2&#45;&gt;6</title>
<path fill="none" stroke="black" d="M164.002,-213.935C169.843,-206.056 178.957,-193.763 186.68,-183.346"/>
<polygon fill="black" stroke="black" points="189.594,-185.292 192.738,-175.174 183.971,-181.123 189.594,-185.292"/>
</g>
<!-- 2&#45;&gt;3 -->
<g id="edge9" class="edge"><title>2&#45;&gt;3</title>
<path fill="none" stroke="cornflowerblue" stroke-dasharray="1,5" d="M168.543,-220.029C187.065,-215.928 225.047,-204.552 241.023,-178 247.897,-166.575 242.699,-161.228 241.023,-148 237.215,-117.95 242.429,-106.057 224.023,-82 207.747,-60.7277 179.655,-47.0609 159.587,-39.4843"/>
<polygon fill="cornflowerblue" stroke="cornflowerblue" points="160.525,-36.1036 149.93,-36.0694 158.191,-42.7031 160.525,-36.1036"/>
</g>
<!-- 5 -->
<g id="node9" class="node"><title>5</title>
<ellipse fill="none" stroke="black" cx="201.023" cy="-97" rx="14.2796" ry="14.7"/>
<text text-anchor="middle" x="201.023" y="-94.8" font-family="Times New Roman,serif" font-size="9.00">5</text>
</g>
<!-- 2&#45;&gt;5 -->
<g id="edge12" class="edge"><title>2&#45;&gt;5</title>
<path fill="none" stroke="cornflowerblue" stroke-dasharray="1,5" d="M168.414,-218.635C183.827,-213.014 212.196,-200.098 224.023,-178 234.226,-158.935 224.644,-134.825 214.92,-118.082"/>
<polygon fill="cornflowerblue" stroke="cornflowerblue" points="217.607,-115.779 209.326,-109.169 211.677,-119.499 217.607,-115.779"/>
</g>
<!-- 2&#45;&gt;4 -->
<g id="edge13" class="edge"><title>2&#45;&gt;4</title>
<path fill="none" stroke="black" d="M155.923,-213.864C151.139,-195.327 139.284,-149.385 132.02,-121.239"/>
<polygon fill="black" stroke="black" points="135.373,-120.226 129.485,-111.418 128.595,-121.975 135.373,-120.226"/>
</g>
<!-- 8&#45;&gt;3 -->
<g id="edge1" class="edge"><title>8&#45;&gt;3</title>
<path fill="none" stroke="black" d="M38.1457,-150.916C56.4658,-128.658 97.9077,-78.3081 120.547,-50.8022"/>
<polygon fill="black" stroke="black" points="123.271,-53.001 126.923,-43.0557 117.866,-48.5525 123.271,-53.001"/>
</g>
<!-- 9&#45;&gt;3 -->
<g id="edge4" class="edge"><title>9&#45;&gt;3</title>
<path fill="none" stroke="black" d="M323.722,-148.102C321.323,-130.338 314.603,-99.7641 296.023,-82 258.441,-46.0677 195.384,-35.9365 160.716,-33.0946"/>
<polygon fill="black" stroke="black" points="160.74,-29.5882 150.526,-32.4045 160.267,-36.5722 160.74,-29.5882"/>
</g>
<!-- 4&#45;&gt;3 -->
<g id="edge10" class="edge"><title>4&#45;&gt;3</title>
<path fill="none" stroke="black" d="M128.193,-82.113C129.385,-74.4811 130.898,-64.7997 132.275,-55.9854"/>
<polygon fill="black" stroke="black" points="135.771,-56.2804 133.857,-45.8599 128.855,-55.1997 135.771,-56.2804"/>
</g>
<!-- 7&#45;&gt;4 -->
<g id="edge6" class="edge"><title>7&#45;&gt;4</title>
<path fill="none" stroke="black" d="M117.41,-148.113C118.721,-140.481 120.385,-130.8 121.9,-121.985"/>
<polygon fill="black" stroke="black" points="125.396,-122.308 123.641,-111.86 118.497,-121.123 125.396,-122.308"/>
</g>
<!-- 6&#45;&gt;5 -->
<g id="edge14" class="edge"><title>6&#45;&gt;5</title>
<path fill="none" stroke="black" d="M201.023,-148.113C201.023,-140.481 201.023,-130.8 201.023,-121.985"/>
<polygon fill="black" stroke="black" points="204.523,-121.86 201.023,-111.86 197.523,-121.86 204.523,-121.86"/>
</g>
<!-- 5&#45;&gt;3 -->
<g id="edge15" class="edge"><title>5&#45;&gt;3</title>
<path fill="none" stroke="black" d="M190.867,-86C180.908,-76.1947 165.525,-61.0481 153.582,-49.289"/>
<polygon fill="black" stroke="black" points="155.904,-46.6631 146.322,-42.141 150.992,-51.6511 155.904,-46.6631"/>
</g>
</g>
</svg>
