<?xml version="1.0" encoding="UTF-8" standalone="no"?>
<!DOCTYPE svg PUBLIC "-//W3C//DTD SVG 1.1//EN"
 "http://www.w3.org/Graphics/SVG/1.1/DTD/svg11.dtd">
<!-- Generated by graphviz version 2.30.1 (20130214.1330)
 -->
<!-- Title: G Pages: 1 -->
<svg width="189pt" height="256pt"
 viewBox="0.00 0.00 189.19 256.00" xmlns="http://www.w3.org/2000/svg" xmlns:xlink="http://www.w3.org/1999/xlink">
<g id="graph0" class="graph" transform="scale(1 1) rotate(0) translate(4 252)">
<title>G</title>
<polygon fill="white" stroke="white" points="-4,5 -4,-252 186.186,-252 186.186,5 -4,5"/>
<g id="clust1" class="cluster"><title>cluster_inputs</title>
<polygon fill="none" stroke="white" points="8,-206 8,-240 85,-240 85,-206 8,-206"/>
</g>
<g id="clust2" class="cluster"><title>cluster_outputs</title>
<polygon fill="none" stroke="white" points="83,-8 83,-54 129,-54 129,-8 83,-8"/>
</g>
<!-- 1 -->
<g id="node1" class="node"><title>1</title>
<polygon fill="lightgrey" stroke="black" points="37.25,-232 16.75,-232 16.75,-214 37.25,-214 37.25,-232"/>
<text text-anchor="middle" x="27" y="-220.8" font-family="Times New Roman,serif" font-size="9.00">1</text>
</g>
<!-- 3 -->
<g id="node3" class="node"><title>3</title>
<ellipse fill="lightblue" stroke="lightblue" cx="106" cy="-31" rx="14.2796" ry="14.7"/>
<text text-anchor="middle" x="106" y="-28.8" font-family="Times New Roman,serif" font-size="9.00">3</text>
</g>
<!-- 1&#45;&gt;3 -->
<g id="edge2" class="edge"><title>1&#45;&gt;3</title>
<path fill="none" stroke="black" d="M28.767,-213.796C33.7039,-191.716 48.8188,-129.492 72,-82 77.2492,-71.2457 84.5657,-60.1543 91.0673,-51.1586"/>
<polygon fill="black" stroke="black" points="94.0158,-53.0596 97.1905,-42.9516 88.4053,-48.8736 94.0158,-53.0596"/>
</g>
<!-- 4 -->
<g id="node5" class="node"><title>4</title>
<ellipse fill="none" stroke="black" cx="106" cy="-97" rx="14.2796" ry="14.7"/>
<text text-anchor="middle" x="106" y="-94.8" font-family="Times New Roman,serif" font-size="9.00">4</text>
</g>
<!-- 1&#45;&gt;4 -->
<g id="edge4" class="edge"><title>1&#45;&gt;4</title>
<path fill="none" stroke="black" d="M32.1834,-213.864C44.3963,-194.694 75.2796,-146.219 92.9885,-118.423"/>
<polygon fill="black" stroke="black" points="96.0217,-120.176 98.443,-109.862 90.118,-116.415 96.0217,-120.176"/>
</g>
<!-- 2 -->
<g id="node2" class="node"><title>2</title>
<polygon fill="lightgrey" stroke="black" points="76.25,-232 55.75,-232 55.75,-214 76.25,-214 76.25,-232"/>
<text text-anchor="middle" x="66" y="-220.8" font-family="Times New Roman,serif" font-size="9.00">2</text>
</g>
<!-- 2&#45;&gt;3 -->
<g id="edge6" class="edge"><title>2&#45;&gt;3</title>
<path fill="none" stroke="cornflowerblue" stroke-dasharray="1,5" d="M65.9925,-213.924C66.1693,-192.162 67.9734,-130.659 82,-82 84.8291,-72.1856 89.4345,-61.9197 93.8583,-53.2617"/>
<polygon fill="cornflowerblue" stroke="cornflowerblue" points="97.0332,-54.7468 98.6714,-44.2793 90.8632,-51.4406 97.0332,-54.7468"/>
</g>
<!-- 5 -->
<g id="node4" class="node"><title>5</title>
<ellipse fill="none" stroke="black" cx="152" cy="-163" rx="14.2796" ry="14.7"/>
<text text-anchor="middle" x="152" y="-160.8" font-family="Times New Roman,serif" font-size="9.00">5</text>
</g>
<!-- 2&#45;&gt;5 -->
<g id="edge8" class="edge"><title>2&#45;&gt;5</title>
<path fill="none" stroke="black" d="M76.5453,-214.888C90.2954,-205.615 114.631,-189.203 131.946,-177.525"/>
<polygon fill="black" stroke="black" points="133.934,-180.406 140.267,-171.913 130.02,-174.602 133.934,-180.406"/>
</g>
<!-- 2&#45;&gt;4 -->
<g id="edge9" class="edge"><title>2&#45;&gt;4</title>
<path fill="none" stroke="cornflowerblue" stroke-dasharray="1,5" d="M68.6245,-213.864C74.6043,-195.327 89.4241,-149.385 98.5035,-121.239"/>
<polygon fill="cornflowerblue" stroke="cornflowerblue" points="101.933,-122.009 101.672,-111.418 95.2707,-119.86 101.933,-122.009"/>
</g>
<!-- 5&#45;&gt;4 -->
<g id="edge1" class="edge"><title>5&#45;&gt;4</title>
<path fill="none" stroke="black" d="M143.776,-150.558C137.235,-141.457 127.928,-128.509 120.189,-117.742"/>
<polygon fill="black" stroke="black" points="122.831,-115.42 114.153,-109.343 117.147,-119.506 122.831,-115.42"/>
</g>
<!-- 6 -->
<g id="node6" class="node"><title>6</title>
<ellipse fill="none" stroke="black" cx="154" cy="-97" rx="14.2796" ry="14.7"/>
<text text-anchor="middle" x="154" y="-94.8" font-family="Times New Roman,serif" font-size="9.00">6</text>
</g>
<!-- 5&#45;&gt;6 -->
<g id="edge3" class="edge"><title>5&#45;&gt;6</title>
<path fill="none" stroke="black" d="M152.434,-148.113C152.672,-140.481 152.975,-130.8 153.25,-121.985"/>
<polygon fill="black" stroke="black" points="156.753,-121.964 153.567,-111.86 149.756,-121.746 156.753,-121.964"/>
</g>
<!-- 5&#45;&gt;3 -->
<g id="edge10" class="edge"><title>5&#45;&gt;3</title>
<path fill="none" stroke="cornflowerblue" stroke-dasharray="1,5" d="M160.68,-150.916C171.994,-135.021 188.996,-105.12 177,-82 166.901,-62.5353 145.357,-49.0482 128.634,-41.0296"/>
<polygon fill="cornflowerblue" stroke="cornflowerblue" points="130.027,-37.8182 119.468,-36.9365 127.172,-44.2099 130.027,-37.8182"/>
</g>
<!-- 4&#45;&gt;3 -->
<g id="edge7" class="edge"><title>4&#45;&gt;3</title>
<path fill="none" stroke="black" d="M106,-82.113C106,-74.4811 106,-64.7997 106,-55.9854"/>
<polygon fill="black" stroke="black" points="109.5,-55.8599 106,-45.8599 102.5,-55.86 109.5,-55.8599"/>
</g>
<!-- 6&#45;&gt;3 -->
<g id="edge5" class="edge"><title>6&#45;&gt;3</title>
<path fill="none" stroke="black" d="M145.639,-84.8521C138.772,-75.6961 128.88,-62.5063 120.695,-51.5939"/>
<polygon fill="black" stroke="black" points="123.388,-49.3512 114.588,-43.4511 117.788,-53.5512 123.388,-49.3512"/>
</g>
</g>
</svg>
