<?xml version="1.0" encoding="UTF-8" standalone="no"?>
<!DOCTYPE svg PUBLIC "-//W3C//DTD SVG 1.1//EN"
 "http://www.w3.org/Graphics/SVG/1.1/DTD/svg11.dtd">
<!-- Generated by graphviz version 2.30.1 (20130214.1330)
 -->
<!-- Title: G Pages: 1 -->
<svg width="208pt" height="388pt"
 viewBox="0.00 0.00 208.42 388.00" xmlns="http://www.w3.org/2000/svg" xmlns:xlink="http://www.w3.org/1999/xlink">
<g id="graph0" class="graph" transform="scale(1 1) rotate(0) translate(4 384)">
<title>G</title>
<polygon fill="white" stroke="white" points="-4,5 -4,-384 205.425,-384 205.425,5 -4,5"/>
<g id="clust1" class="cluster"><title>cluster_inputs</title>
<polygon fill="none" stroke="white" points="50,-338 50,-372 127,-372 127,-338 50,-338"/>
</g>
<g id="clust2" class="cluster"><title>cluster_outputs</title>
<polygon fill="none" stroke="white" points="75,-8 75,-54 121,-54 121,-8 75,-8"/>
</g>
<!-- 1 -->
<g id="node1" class="node"><title>1</title>
<polygon fill="lightgrey" stroke="black" points="79.25,-364 58.75,-364 58.75,-346 79.25,-346 79.25,-364"/>
<text text-anchor="middle" x="69" y="-352.8" font-family="Times New Roman,serif" font-size="9.00">1</text>
</g>
<!-- 4 -->
<g id="node6" class="node"><title>4</title>
<ellipse fill="none" stroke="black" cx="96" cy="-163" rx="14.2796" ry="14.7"/>
<text text-anchor="middle" x="96" y="-160.8" font-family="Times New Roman,serif" font-size="9.00">4</text>
</g>
<!-- 1&#45;&gt;4 -->
<g id="edge6" class="edge"><title>1&#45;&gt;4</title>
<path fill="none" stroke="black" d="M70.1602,-345.836C74.0136,-318.719 86.4869,-230.944 92.583,-188.046"/>
<polygon fill="black" stroke="black" points="96.0783,-188.326 94.0201,-177.933 89.1479,-187.341 96.0783,-188.326"/>
</g>
<!-- 3 -->
<g id="node3" class="node"><title>3</title>
<ellipse fill="lightblue" stroke="lightblue" cx="98" cy="-31" rx="14.2796" ry="14.7"/>
<text text-anchor="middle" x="98" y="-28.8" font-family="Times New Roman,serif" font-size="9.00">3</text>
</g>
<!-- 1&#45;&gt;3 -->
<g id="edge8" class="edge"><title>1&#45;&gt;3</title>
<path fill="none" stroke="black" d="M60.5392,-345.868C42.1143,-327.24 0,-279.273 0,-230 0,-230 0,-230 0,-162 0,-123.868 7.93276,-112.363 31,-82 43.244,-65.8833 62.03,-52.4884 76.5974,-43.6324"/>
<polygon fill="black" stroke="black" points="78.5643,-46.5374 85.4499,-38.4852 75.0457,-40.486 78.5643,-46.5374"/>
</g>
<!-- 2 -->
<g id="node2" class="node"><title>2</title>
<polygon fill="lightgrey" stroke="black" points="118.25,-364 97.75,-364 97.75,-346 118.25,-346 118.25,-364"/>
<text text-anchor="middle" x="108" y="-352.8" font-family="Times New Roman,serif" font-size="9.00">2</text>
</g>
<!-- 7 -->
<g id="node4" class="node"><title>7</title>
<ellipse fill="none" stroke="black" cx="157" cy="-295" rx="14.2796" ry="14.7"/>
<text text-anchor="middle" x="157" y="-292.8" font-family="Times New Roman,serif" font-size="9.00">7</text>
</g>
<!-- 2&#45;&gt;7 -->
<g id="edge1" class="edge"><title>2&#45;&gt;7</title>
<path fill="none" stroke="black" d="M114.813,-345.935C121.619,-337.879 132.324,-325.208 141.247,-314.646"/>
<polygon fill="black" stroke="black" points="144.133,-316.654 147.913,-306.756 138.785,-312.137 144.133,-316.654"/>
</g>
<!-- 6 -->
<g id="node5" class="node"><title>6</title>
<ellipse fill="none" stroke="black" cx="137" cy="-229" rx="14.2796" ry="14.7"/>
<text text-anchor="middle" x="137" y="-226.8" font-family="Times New Roman,serif" font-size="9.00">6</text>
</g>
<!-- 2&#45;&gt;6 -->
<g id="edge3" class="edge"><title>2&#45;&gt;6</title>
<path fill="none" stroke="cornflowerblue" stroke-dasharray="1,5" d="M109.903,-345.864C114.216,-327.422 124.872,-281.858 131.463,-253.676"/>
<polygon fill="cornflowerblue" stroke="cornflowerblue" points="134.899,-254.353 133.768,-243.819 128.083,-252.759 134.899,-254.353"/>
</g>
<!-- 2&#45;&gt;3 -->
<g id="edge9" class="edge"><title>2&#45;&gt;3</title>
<path fill="none" stroke="cornflowerblue" stroke-dasharray="1,5" d="M118.353,-350.577C134.156,-344.805 164.128,-331.605 180,-310 201.699,-280.464 200,-266.65 200,-230 200,-230 200,-230 200,-162 200,-109.744 148.357,-66.0343 118.565,-45.1659"/>
<polygon fill="cornflowerblue" stroke="cornflowerblue" points="120.345,-42.1445 110.101,-39.4386 116.422,-47.9418 120.345,-42.1445"/>
</g>
<!-- 5 -->
<g id="node7" class="node"><title>5</title>
<ellipse fill="none" stroke="black" cx="55" cy="-97" rx="14.2796" ry="14.7"/>
<text text-anchor="middle" x="55" y="-94.8" font-family="Times New Roman,serif" font-size="9.00">5</text>
</g>
<!-- 2&#45;&gt;5 -->
<g id="edge11" class="edge"><title>2&#45;&gt;5</title>
<path fill="none" stroke="black" d="M106.297,-345.772C99.1373,-311.192 71.3299,-176.876 59.9236,-121.782"/>
<polygon fill="black" stroke="black" points="63.3267,-120.955 57.872,-111.872 56.4721,-122.374 63.3267,-120.955"/>
</g>
<!-- 7&#45;&gt;6 -->
<g id="edge5" class="edge"><title>7&#45;&gt;6</title>
<path fill="none" stroke="black" d="M152.856,-280.739C150.362,-272.759 147.118,-262.377 144.214,-253.085"/>
<polygon fill="black" stroke="black" points="147.462,-251.745 141.139,-243.244 140.781,-253.833 147.462,-251.745"/>
</g>
<!-- 6&#45;&gt;4 -->
<g id="edge2" class="edge"><title>6&#45;&gt;4</title>
<path fill="none" stroke="black" d="M129.48,-216.261C123.83,-207.442 115.945,-195.133 109.246,-184.677"/>
<polygon fill="black" stroke="black" points="112.092,-182.631 103.751,-176.099 106.198,-186.407 112.092,-182.631"/>
</g>
<!-- 6&#45;&gt;3 -->
<g id="edge7" class="edge"><title>6&#45;&gt;3</title>
<path fill="none" stroke="black" d="M134.918,-214.242C130.905,-188.271 121.561,-130.291 111,-82 109.087,-73.2516 106.689,-63.7216 104.475,-55.3505"/>
<polygon fill="black" stroke="black" points="107.804,-54.2552 101.819,-45.5128 101.046,-56.0794 107.804,-54.2552"/>
</g>
<!-- 4&#45;&gt;5 -->
<g id="edge4" class="edge"><title>4&#45;&gt;5</title>
<path fill="none" stroke="black" d="M88.48,-150.261C82.8298,-141.442 74.9449,-129.133 68.2463,-118.677"/>
<polygon fill="black" stroke="black" points="71.0924,-116.631 62.7509,-110.099 65.1981,-120.407 71.0924,-116.631"/>
</g>
<!-- 4&#45;&gt;3 -->
<g id="edge10" class="edge"><title>4&#45;&gt;3</title>
<path fill="none" stroke="cornflowerblue" stroke-dasharray="1,5" d="M96.214,-148.088C96.5506,-126.211 97.208,-83.4788 97.6245,-56.4081"/>
<polygon fill="cornflowerblue" stroke="cornflowerblue" points="101.127,-56.259 97.7814,-46.2063 94.1279,-56.1513 101.127,-56.259"/>
</g>
<!-- 5&#45;&gt;3 -->
<g id="edge12" class="edge"><title>5&#45;&gt;3</title>
<path fill="none" stroke="black" d="M62.8869,-84.2614C68.8876,-75.33 77.2919,-62.8213 84.3738,-52.2809"/>
<polygon fill="black" stroke="black" points="87.4914,-53.9166 90.1631,-43.6642 81.681,-50.0128 87.4914,-53.9166"/>
</g>
</g>
</svg>
