<?xml version="1.0" encoding="UTF-8" standalone="no"?>
<!DOCTYPE svg PUBLIC "-//W3C//DTD SVG 1.1//EN"
 "http://www.w3.org/Graphics/SVG/1.1/DTD/svg11.dtd">
<!-- Generated by graphviz version 2.30.1 (20130214.1330)
 -->
<!-- Title: G Pages: 1 -->
<svg width="140pt" height="124pt"
 viewBox="0.00 0.00 140.00 124.00" xmlns="http://www.w3.org/2000/svg" xmlns:xlink="http://www.w3.org/1999/xlink">
<g id="graph0" class="graph" transform="scale(1 1) rotate(0) translate(4 120)">
<title>G</title>
<polygon fill="white" stroke="white" points="-4,5 -4,-120 137,-120 137,5 -4,5"/>
<g id="clust1" class="cluster"><title>cluster_inputs</title>
<polygon fill="none" stroke="white" points="8,-74 8,-108 124,-108 124,-74 8,-74"/>
</g>
<g id="clust2" class="cluster"><title>cluster_outputs</title>
<polygon fill="none" stroke="white" points="11,-8 11,-54 75,-54 75,-8 11,-8"/>
</g>
<!-- 1 -->
<g id="node1" class="node"><title>1</title>
<polygon fill="lightgrey" stroke="black" points="76.25,-100 55.75,-100 55.75,-82 76.25,-82 76.25,-100"/>
<text text-anchor="middle" x="66" y="-88.8" font-family="Times New Roman,serif" font-size="9.00">1</text>
</g>
<!-- 4 -->
<g id="node4" class="node"><title>4</title>
<ellipse fill="lightblue" stroke="lightblue" cx="34" cy="-31" rx="14.2796" ry="14.7"/>
<text text-anchor="middle" x="34" y="-28.8" font-family="Times New Roman,serif" font-size="9.00">4</text>
</g>
<!-- 1&#45;&gt;4 -->
<g id="edge5" class="edge"><title>1&#45;&gt;4</title>
<path fill="none" stroke="black" d="M61.5505,-81.9353C57.4901,-74.5759 51.3046,-63.3647 45.8227,-53.4286"/>
<polygon fill="black" stroke="black" points="48.77,-51.5253 40.8746,-44.4603 42.6409,-54.9068 48.77,-51.5253"/>
</g>
<!-- 5 -->
<g id="node5" class="node"><title>5</title>
<ellipse fill="none" stroke="black" cx="100" cy="-31" rx="14.2796" ry="14.7"/>
<text text-anchor="middle" x="100" y="-28.8" font-family="Times New Roman,serif" font-size="9.00">5</text>
</g>
<!-- 1&#45;&gt;5 -->
<g id="edge6" class="edge"><title>1&#45;&gt;5</title>
<path fill="none" stroke="black" d="M70.7276,-81.9353C75.1421,-74.4047 81.9208,-62.841 87.8436,-52.7373"/>
<polygon fill="black" stroke="black" points="90.9122,-54.4235 92.95,-44.0264 84.8733,-50.8834 90.9122,-54.4235"/>
</g>
<!-- 2 -->
<g id="node2" class="node"><title>2</title>
<polygon fill="lightgrey" stroke="black" points="37.25,-100 16.75,-100 16.75,-82 37.25,-82 37.25,-100"/>
<text text-anchor="middle" x="27" y="-88.8" font-family="Times New Roman,serif" font-size="9.00">2</text>
</g>
<!-- 2&#45;&gt;5 -->
<g id="edge7" class="edge"><title>2&#45;&gt;5</title>
<path fill="none" stroke="black" d="M36.0465,-81.8908C39.1236,-79.2668 42.6363,-76.4134 46,-74 59.9343,-64.0021 65.6297,-64.7405 79,-54 80.5437,-52.7599 82.0857,-51.4111 83.5935,-50.012"/>
<polygon fill="black" stroke="black" points="86.1274,-52.4275 90.6954,-42.868 81.1631,-47.4923 86.1274,-52.4275"/>
</g>
<!-- 2&#45;&gt;4 -->
<g id="edge9" class="edge"><title>2&#45;&gt;4</title>
<path fill="none" stroke="black" d="M27.9733,-81.9353C28.7922,-75.1507 30.0061,-65.0926 31.1303,-55.7779"/>
<polygon fill="black" stroke="black" points="34.612,-56.1385 32.3356,-45.7912 27.6625,-55.2997 34.612,-56.1385"/>
</g>
<!-- 3 -->
<g id="node3" class="node"><title>3</title>
<polygon fill="lightgrey" stroke="black" points="115.25,-100 94.75,-100 94.75,-82 115.25,-82 115.25,-100"/>
<text text-anchor="middle" x="105" y="-88.8" font-family="Times New Roman,serif" font-size="9.00">3</text>
</g>
<!-- 3&#45;&gt;4 -->
<g id="edge8" class="edge"><title>3&#45;&gt;4</title>
<path fill="none" stroke="black" d="M95.1278,-81.9353C84.2731,-73.0682 66.5737,-58.6095 53.0066,-47.5266"/>
<polygon fill="black" stroke="black" points="55.1501,-44.7582 45.1914,-41.1423 50.7216,-50.1793 55.1501,-44.7582"/>
</g>
<!-- 3&#45;&gt;5 -->
<g id="edge10" class="edge"><title>3&#45;&gt;5</title>
<path fill="none" stroke="black" d="M104.305,-81.9353C103.734,-75.3132 102.894,-65.5724 102.108,-56.4482"/>
<polygon fill="black" stroke="black" points="105.574,-55.9065 101.228,-46.2441 98.5998,-56.5078 105.574,-55.9065"/>
</g>
<!-- 4&#45;&gt;5 -->
<g id="edge3" class="edge"><title>4&#45;&gt;5</title>
<path fill="none" stroke="black" d="M48.4375,-31C57.4131,-31 66.3887,-31 75.3643,-31"/>
<polygon fill="black" stroke="black" points="75.4981,-34.5001 85.498,-31 75.498,-27.5001 75.4981,-34.5001"/>
</g>
<!-- 4&#45;&gt;4 -->
<g id="edge4" class="edge"><title>4&#45;&gt;4</title>
<path fill="none" stroke="black" d="M45.483,-40.3933C55.4531,-44.678 66,-41.5469 66,-31 66,-24.0786 61.4578,-20.3509 55.5173,-19.817"/>
<polygon fill="black" stroke="black" points="54.7131,-16.4051 45.483,-21.6067 55.9423,-23.2963 54.7131,-16.4051"/>
</g>
<!-- 5&#45;&gt;4 -->
<g id="edge1" class="edge"><title>5&#45;&gt;4</title>
<path fill="none" stroke="black" d="M85.498,-31C76.5224,-31 67.5468,-31 58.5712,-31"/>
<polygon fill="black" stroke="black" points="58.4375,-27.5001 48.4375,-31 58.4375,-34.5001 58.4375,-27.5001"/>
</g>
<!-- 5&#45;&gt;5 -->
<g id="edge2" class="edge"><title>5&#45;&gt;5</title>
<path fill="none" stroke="black" d="M111.483,-40.3933C121.453,-44.678 132,-41.5469 132,-31 132,-24.0786 127.458,-20.3509 121.517,-19.817"/>
<polygon fill="black" stroke="black" points="120.713,-16.4051 111.483,-21.6067 121.942,-23.2963 120.713,-16.4051"/>
</g>
</g>
</svg>
