<?xml version="1.0" encoding="UTF-8" standalone="no"?>
<!DOCTYPE svg PUBLIC "-//W3C//DTD SVG 1.1//EN"
 "http://www.w3.org/Graphics/SVG/1.1/DTD/svg11.dtd">
<!-- Generated by graphviz version 2.30.1 (20130214.1330)
 -->
<!-- Title: G Pages: 1 -->
<svg width="101pt" height="256pt"
 viewBox="0.00 0.00 101.10 256.00" xmlns="http://www.w3.org/2000/svg" xmlns:xlink="http://www.w3.org/1999/xlink">
<g id="graph0" class="graph" transform="scale(1 1) rotate(0) translate(4 252)">
<title>G</title>
<polygon fill="white" stroke="white" points="-4,5 -4,-252 98.0987,-252 98.0987,5 -4,5"/>
<g id="clust1" class="cluster"><title>cluster_inputs</title>
<polygon fill="none" stroke="white" points="8,-206 8,-240 85,-240 85,-206 8,-206"/>
</g>
<g id="clust2" class="cluster"><title>cluster_outputs</title>
<polygon fill="none" stroke="white" points="23,-8 23,-54 69,-54 69,-8 23,-8"/>
</g>
<!-- 1 -->
<g id="node1" class="node"><title>1</title>
<polygon fill="lightgrey" stroke="black" points="37.25,-232 16.75,-232 16.75,-214 37.25,-214 37.25,-232"/>
<text text-anchor="middle" x="27" y="-220.8" font-family="Times New Roman,serif" font-size="9.00">1</text>
</g>
<!-- 3 -->
<g id="node3" class="node"><title>3</title>
<ellipse fill="lightblue" stroke="lightblue" cx="46" cy="-31" rx="14.2796" ry="14.7"/>
<text text-anchor="middle" x="46" y="-28.8" font-family="Times New Roman,serif" font-size="9.00">3</text>
</g>
<!-- 1&#45;&gt;3 -->
<g id="edge2" class="edge"><title>1&#45;&gt;3</title>
<path fill="none" stroke="cornflowerblue" stroke-dasharray="1,5" d="M24.0595,-213.899C16.5873,-192.074 -1.54042,-130.428 13,-82 16.4096,-70.644 23.3266,-59.4868 29.951,-50.6032"/>
<polygon fill="cornflowerblue" stroke="cornflowerblue" points="32.8634,-52.5636 36.3371,-42.5544 27.3798,-48.2127 32.8634,-52.5636"/>
</g>
<!-- 4 -->
<g id="node5" class="node"><title>4</title>
<ellipse fill="none" stroke="black" cx="37" cy="-97" rx="14.2796" ry="14.7"/>
<text text-anchor="middle" x="37" y="-94.8" font-family="Times New Roman,serif" font-size="9.00">4</text>
</g>
<!-- 1&#45;&gt;4 -->
<g id="edge3" class="edge"><title>1&#45;&gt;4</title>
<path fill="none" stroke="black" d="M26.6707,-213.763C26.222,-200.073 25.714,-171.788 28,-148 28.8213,-139.454 30.3193,-130.177 31.8606,-121.962"/>
<polygon fill="black" stroke="black" points="35.3391,-122.414 33.8585,-111.924 28.4738,-121.048 35.3391,-122.414"/>
</g>
<!-- 5 -->
<g id="node4" class="node"><title>5</title>
<ellipse fill="none" stroke="black" cx="52" cy="-163" rx="14.2796" ry="14.7"/>
<text text-anchor="middle" x="52" y="-160.8" font-family="Times New Roman,serif" font-size="9.00">5</text>
</g>
<!-- 1&#45;&gt;5 -->
<g id="edge4" class="edge"><title>1&#45;&gt;5</title>
<path fill="none" stroke="black" d="M30.4761,-213.935C33.5754,-206.745 38.2594,-195.878 42.4672,-186.116"/>
<polygon fill="black" stroke="black" points="45.6958,-187.468 46.44,-176.899 39.2676,-184.697 45.6958,-187.468"/>
</g>
<!-- 2 -->
<g id="node2" class="node"><title>2</title>
<polygon fill="lightgrey" stroke="black" points="76.25,-232 55.75,-232 55.75,-214 76.25,-214 76.25,-232"/>
<text text-anchor="middle" x="66" y="-220.8" font-family="Times New Roman,serif" font-size="9.00">2</text>
</g>
<!-- 2&#45;&gt;3 -->
<g id="edge5" class="edge"><title>2&#45;&gt;3</title>
<path fill="none" stroke="black" d="M72.395,-213.812C78.5408,-205.381 87.4086,-191.591 91,-178 94.4064,-165.109 92.5818,-161.239 91,-148 87.4192,-118.03 86.2434,-110.011 75,-82 70.8384,-71.6323 64.812,-60.8261 59.3297,-51.9235"/>
<polygon fill="black" stroke="black" points="62.2429,-49.9822 53.9145,-43.4332 56.3412,-53.7465 62.2429,-49.9822"/>
</g>
<!-- 2&#45;&gt;5 -->
<g id="edge7" class="edge"><title>2&#45;&gt;5</title>
<path fill="none" stroke="black" d="M64.0534,-213.935C62.4157,-207.151 59.9879,-197.093 57.7395,-187.778"/>
<polygon fill="black" stroke="black" points="61.0777,-186.691 55.3289,-177.791 54.2731,-188.333 61.0777,-186.691"/>
</g>
<!-- 2&#45;&gt;4 -->
<g id="edge8" class="edge"><title>2&#45;&gt;4</title>
<path fill="none" stroke="cornflowerblue" stroke-dasharray="1,5" d="M69.2118,-213.991C74.2727,-200.158 82.7675,-171.058 75,-148 70.8427,-135.659 62.2931,-123.95 54.3545,-114.969"/>
<polygon fill="cornflowerblue" stroke="cornflowerblue" points="56.7788,-112.438 47.3794,-107.549 51.6784,-117.233 56.7788,-112.438"/>
</g>
<!-- 5&#45;&gt;4 -->
<g id="edge1" class="edge"><title>5&#45;&gt;4</title>
<path fill="none" stroke="black" d="M48.8189,-148.427C46.9893,-140.621 44.6395,-130.595 42.5177,-121.542"/>
<polygon fill="black" stroke="black" points="45.8662,-120.491 40.1765,-111.553 39.0509,-122.088 45.8662,-120.491"/>
</g>
<!-- 5&#45;&gt;3 -->
<g id="edge9" class="edge"><title>5&#45;&gt;3</title>
<path fill="none" stroke="black" d="M55.3172,-148.375C58.7485,-132.425 63.1911,-105.232 60,-82 58.7752,-73.0834 56.3763,-63.5164 53.9053,-55.1627"/>
<polygon fill="black" stroke="black" points="57.1634,-53.8564 50.8199,-45.3705 50.487,-55.9601 57.1634,-53.8564"/>
</g>
<!-- 4&#45;&gt;3 -->
<g id="edge6" class="edge"><title>4&#45;&gt;3</title>
<path fill="none" stroke="black" d="M38.9529,-82.113C40.0261,-74.4811 41.3875,-64.7997 42.6271,-55.9854"/>
<polygon fill="black" stroke="black" points="46.1242,-56.2499 44.0509,-45.8599 39.1924,-55.2751 46.1242,-56.2499"/>
</g>
</g>
</svg>
