<?xml version="1.0" encoding="UTF-8" standalone="no"?>
<!DOCTYPE svg PUBLIC "-//W3C//DTD SVG 1.1//EN"
 "http://www.w3.org/Graphics/SVG/1.1/DTD/svg11.dtd">
<!-- Generated by graphviz version 2.30.1 (20130214.1330)
 -->
<!-- Title: G Pages: 1 -->
<svg width="340pt" height="193pt"
 viewBox="0.00 0.00 340.14 193.40" xmlns="http://www.w3.org/2000/svg" xmlns:xlink="http://www.w3.org/1999/xlink">
<g id="graph0" class="graph" transform="scale(1 1) rotate(0) translate(4 189.403)">
<title>G</title>
<polygon fill="white" stroke="white" points="-4,5 -4,-189.403 337.139,-189.403 337.139,5 -4,5"/>
<g id="clust1" class="cluster"><title>cluster_inputs</title>
<polygon fill="none" stroke="white" points="89.1385,-130 89.1385,-164 205.139,-164 205.139,-130 89.1385,-130"/>
</g>
<g id="clust2" class="cluster"><title>cluster_outputs</title>
<polygon fill="none" stroke="white" points="260.139,-58 260.139,-104 324.139,-104 324.139,-58 260.139,-58"/>
</g>
<!-- 1 -->
<g id="node1" class="node"><title>1</title>
<polygon fill="lightgrey" stroke="black" points="196.389,-156 175.889,-156 175.889,-138 196.389,-138 196.389,-156"/>
<text text-anchor="middle" x="186.139" y="-144.8" font-family="Times New Roman,serif" font-size="9.00">1</text>
</g>
<!-- 6 -->
<g id="node5" class="node"><title>6</title>
<ellipse fill="none" stroke="black" cx="65.1385" cy="-81" rx="14.2796" ry="14.7"/>
<text text-anchor="middle" x="65.1385" y="-78.8" font-family="Times New Roman,serif" font-size="9.00">6</text>
</g>
<!-- 1&#45;&gt;6 -->
<g id="edge3" class="edge"><title>1&#45;&gt;6</title>
<path fill="none" stroke="black" d="M176.707,-137.716C173.474,-135.081 169.757,-132.265 166.139,-130 140.54,-113.98 108.762,-99.7066 87.7636,-90.9719"/>
<polygon fill="black" stroke="black" points="88.9768,-87.6868 78.3958,-87.1455 86.3298,-94.1671 88.9768,-87.6868"/>
</g>
<!-- 5 -->
<g id="node6" class="node"><title>5</title>
<ellipse fill="none" stroke="black" cx="164.139" cy="-15" rx="14.2796" ry="14.7"/>
<text text-anchor="middle" x="164.139" y="-12.8" font-family="Times New Roman,serif" font-size="9.00">5</text>
</g>
<!-- 1&#45;&gt;5 -->
<g id="edge10" class="edge"><title>1&#45;&gt;5</title>
<path fill="none" stroke="black" d="M184.762,-137.868C181.495,-118.56 173.169,-69.3617 168.152,-39.7146"/>
<polygon fill="black" stroke="black" points="171.588,-39.0439 166.469,-29.7681 164.686,-40.2119 171.588,-39.0439"/>
</g>
<!-- 4 -->
<g id="node4" class="node"><title>4</title>
<ellipse fill="lightblue" stroke="lightblue" cx="283.139" cy="-81" rx="14.2796" ry="14.7"/>
<text text-anchor="middle" x="283.139" y="-78.8" font-family="Times New Roman,serif" font-size="9.00">4</text>
</g>
<!-- 1&#45;&gt;4 -->
<g id="edge16" class="edge"><title>1&#45;&gt;4</title>
<path fill="none" stroke="black" d="M196.471,-140.036C209.969,-132.151 234.227,-117.656 254.139,-104 257.35,-101.797 260.696,-99.3803 263.926,-96.9798"/>
<polygon fill="black" stroke="black" points="266.185,-99.659 272.03,-90.8224 261.95,-94.0853 266.185,-99.659"/>
</g>
<!-- 7 -->
<g id="node7" class="node"><title>7</title>
<ellipse fill="none" stroke="black" cx="65.1385" cy="-15" rx="14.2796" ry="14.7"/>
<text text-anchor="middle" x="65.1385" y="-12.8" font-family="Times New Roman,serif" font-size="9.00">7</text>
</g>
<!-- 1&#45;&gt;7 -->
<g id="edge21" class="edge"><title>1&#45;&gt;7</title>
<path fill="none" stroke="black" d="M178.735,-137.66C164.73,-121.927 133.322,-86.8549 106.139,-58 98.4415,-49.8297 89.7771,-40.9142 82.403,-33.4075"/>
<polygon fill="black" stroke="black" points="84.5287,-30.5786 75.0146,-25.9169 79.5451,-35.4943 84.5287,-30.5786"/>
</g>
<!-- 2 -->
<g id="node2" class="node"><title>2</title>
<polygon fill="lightgrey" stroke="black" points="118.389,-156 97.8885,-156 97.8885,-138 118.389,-138 118.389,-156"/>
<text text-anchor="middle" x="108.139" y="-144.8" font-family="Times New Roman,serif" font-size="9.00">2</text>
</g>
<!-- 2&#45;&gt;5 -->
<g id="edge5" class="edge"><title>2&#45;&gt;5</title>
<path fill="none" stroke="black" d="M111.642,-137.868C120.081,-118.277 141.777,-67.9101 154.48,-38.4211"/>
<polygon fill="black" stroke="black" points="157.82,-39.5146 158.562,-28.9458 151.391,-36.7452 157.82,-39.5146"/>
</g>
<!-- 2&#45;&gt;6 -->
<g id="edge14" class="edge"><title>2&#45;&gt;6</title>
<path fill="none" stroke="black" d="M102.693,-137.894C96.7137,-128.996 86.8866,-114.369 78.7846,-102.31"/>
<polygon fill="black" stroke="black" points="81.4997,-100.076 73.0176,-93.7269 75.6893,-103.979 81.4997,-100.076"/>
</g>
<!-- 2&#45;&gt;7 -->
<g id="edge19" class="edge"><title>2&#45;&gt;7</title>
<path fill="none" stroke="black" d="M99.2698,-137.768C95.9604,-135.013 92.0525,-132.11 88.1385,-130 55.2307,-112.257 30.1125,-134.247 8.13853,-104 -3.87781,-87.4597 -1.0819,-76.2472 8.13853,-58 15.3835,-43.6623 30.0861,-33.0178 42.7439,-26.0322"/>
<polygon fill="black" stroke="black" points="44.5335,-29.0491 51.8675,-21.403 41.3661,-22.8066 44.5335,-29.0491"/>
</g>
<!-- 2&#45;&gt;4 -->
<g id="edge23" class="edge"><title>2&#45;&gt;4</title>
<path fill="none" stroke="black" d="M116.488,-137.717C119.625,-134.957 123.352,-132.064 127.139,-130 170.535,-106.338 227.22,-92.6361 258.936,-86.307"/>
<polygon fill="black" stroke="black" points="259.887,-89.6887 269.051,-84.3715 258.571,-82.8134 259.887,-89.6887"/>
</g>
<!-- 3 -->
<g id="node3" class="node"><title>3</title>
<polygon fill="lightgrey" stroke="black" points="157.389,-156 136.889,-156 136.889,-138 157.389,-138 157.389,-156"/>
<text text-anchor="middle" x="147.139" y="-144.8" font-family="Times New Roman,serif" font-size="9.00">3</text>
</g>
<!-- 3&#45;&gt;7 -->
<g id="edge4" class="edge"><title>3&#45;&gt;7</title>
<path fill="none" stroke="black" d="M138.294,-137.723C134.987,-134.964 131.074,-132.07 127.139,-130 91.7972,-111.413 64.9403,-136.062 41.1385,-104 26.1315,-83.7851 39.0206,-54.7385 50.9449,-35.6262"/>
<polygon fill="black" stroke="black" points="53.9751,-37.39 56.5946,-27.124 48.1449,-33.5157 53.9751,-37.39"/>
</g>
<!-- 3&#45;&gt;6 -->
<g id="edge11" class="edge"><title>3&#45;&gt;6</title>
<path fill="none" stroke="black" d="M136.989,-137.829C133.84,-135.308 130.353,-132.53 127.139,-130 113.022,-118.89 96.9833,-106.479 84.7559,-97.0602"/>
<polygon fill="black" stroke="black" points="86.6683,-94.1155 76.6081,-90.7925 82.4002,-99.6639 86.6683,-94.1155"/>
</g>
<!-- 3&#45;&gt;5 -->
<g id="edge18" class="edge"><title>3&#45;&gt;5</title>
<path fill="none" stroke="black" d="M148.202,-137.868C150.727,-118.56 157.16,-69.3617 161.037,-39.7146"/>
<polygon fill="black" stroke="black" points="164.512,-40.1375 162.338,-29.7681 157.571,-39.2298 164.512,-40.1375"/>
</g>
<!-- 8 -->
<g id="node8" class="node"><title>8</title>
<ellipse fill="none" stroke="black" cx="65.1385" cy="-147" rx="14.2796" ry="14.7"/>
<text text-anchor="middle" x="65.1385" y="-144.8" font-family="Times New Roman,serif" font-size="9.00">8</text>
</g>
<!-- 3&#45;&gt;8 -->
<g id="edge20" class="edge"><title>3&#45;&gt;8</title>
<path fill="none" stroke="black" d="M142.603,-156.128C137.824,-164.607 129.422,-176.696 118.139,-182 108.485,-186.538 103.792,-186.538 94.1385,-182 87.8585,-179.048 82.471,-173.994 78.104,-168.631"/>
<polygon fill="black" stroke="black" points="80.7536,-166.318 72.0997,-160.205 75.053,-170.38 80.7536,-166.318"/>
</g>
<!-- 3&#45;&gt;4 -->
<g id="edge22" class="edge"><title>3&#45;&gt;4</title>
<path fill="none" stroke="black" d="M155.597,-137.906C158.744,-135.164 162.45,-132.234 166.139,-130 196.565,-111.57 235.344,-97.2419 259.715,-89.2056"/>
<polygon fill="black" stroke="black" points="261.063,-92.4487 269.514,-86.0584 258.922,-85.784 261.063,-92.4487"/>
</g>
<!-- 4&#45;&gt;4 -->
<g id="edge9" class="edge"><title>4&#45;&gt;4</title>
<path fill="none" stroke="black" d="M293.958,-91.0063C304.118,-96.1948 315.139,-92.8594 315.139,-81 315.139,-73.032 310.164,-68.9118 303.817,-68.6395"/>
<polygon fill="black" stroke="black" points="302.872,-65.2668 293.958,-70.9937 304.497,-72.0754 302.872,-65.2668"/>
</g>
<!-- 4&#45;&gt;5 -->
<g id="edge15" class="edge"><title>4&#45;&gt;5</title>
<path fill="none" stroke="black" d="M269.924,-74.6996C262.273,-69.9672 253.472,-63.0271 245.139,-58 225.698,-46.2725 202.447,-35.4979 185.672,-27.7984"/>
<polygon fill="black" stroke="black" points="186.703,-24.4205 176.156,-23.4207 183.778,-30.7798 186.703,-24.4205"/>
</g>
<!-- 6&#45;&gt;6 -->
<g id="edge1" class="edge"><title>6&#45;&gt;6</title>
<path fill="none" stroke="black" d="M75.9579,-91.0063C86.1177,-96.1948 97.1385,-92.8594 97.1385,-81 97.1385,-73.032 92.1636,-68.9118 85.8173,-68.6395"/>
<polygon fill="black" stroke="black" points="84.8715,-65.2668 75.9579,-70.9937 86.4973,-72.0754 84.8715,-65.2668"/>
</g>
<!-- 6&#45;&gt;7 -->
<g id="edge6" class="edge"><title>6&#45;&gt;7</title>
<path fill="none" stroke="black" d="M59.5899,-67.0486C58.4254,-58.9811 58.1075,-48.3739 58.6361,-38.9196"/>
<polygon fill="black" stroke="black" points="62.1232,-39.2203 59.5927,-28.9321 55.1551,-38.5528 62.1232,-39.2203"/>
</g>
<!-- 6&#45;&gt;5 -->
<g id="edge17" class="edge"><title>6&#45;&gt;5</title>
<path fill="none" stroke="black" d="M75.1652,-70.2798C91.0188,-58.5747 121.272,-38.9741 142.217,-26.8048"/>
<polygon fill="black" stroke="black" points="144.111,-29.7547 151.1,-21.7916 140.671,-23.6585 144.111,-29.7547"/>
</g>
<!-- 5&#45;&gt;6 -->
<g id="edge2" class="edge"><title>5&#45;&gt;6</title>
<path fill="none" stroke="black" d="M153.97,-25.8248C138.127,-37.5057 108.128,-56.942 87.2533,-69.0829"/>
<polygon fill="black" stroke="black" points="85.3715,-66.1261 78.388,-74.0938 88.8159,-72.2201 85.3715,-66.1261"/>
</g>
<!-- 5&#45;&gt;5 -->
<g id="edge7" class="edge"><title>5&#45;&gt;5</title>
<path fill="none" stroke="black" d="M174.958,-25.0063C185.118,-30.1948 196.139,-26.8594 196.139,-15 196.139,-7.03198 191.164,-2.9118 184.817,-2.63946"/>
<polygon fill="black" stroke="black" points="183.872,0.733195 174.958,-4.99365 185.497,-6.0754 183.872,0.733195"/>
</g>
<!-- 5&#45;&gt;4 -->
<g id="edge13" class="edge"><title>5&#45;&gt;4</title>
<path fill="none" stroke="black" d="M178.089,-19.3561C198.34,-25.8247 234.791,-40.8993 263.139,-58 264.884,-59.0527 266.649,-60.1894 268.385,-61.3721"/>
<polygon fill="black" stroke="black" points="266.468,-64.3094 276.573,-67.4942 270.66,-58.703 266.468,-64.3094"/>
</g>
<!-- 7&#45;&gt;6 -->
<g id="edge8" class="edge"><title>7&#45;&gt;6</title>
<path fill="none" stroke="black" d="M70.6844,-28.9321C71.8502,-36.9956 72.1695,-47.6017 71.6422,-57.0578"/>
<polygon fill="black" stroke="black" points="68.1547,-56.7609 70.6872,-67.0486 75.123,-57.4271 68.1547,-56.7609"/>
</g>
<!-- 8&#45;&gt;6 -->
<g id="edge12" class="edge"><title>8&#45;&gt;6</title>
<path fill="none" stroke="black" d="M65.1385,-132.113C65.1385,-124.481 65.1385,-114.8 65.1385,-105.985"/>
<polygon fill="black" stroke="black" points="68.6386,-105.86 65.1385,-95.8599 61.6386,-105.86 68.6386,-105.86"/>
</g>
</g>
</svg>
