<?xml version="1.0" encoding="UTF-8" standalone="no"?>
<!DOCTYPE svg PUBLIC "-//W3C//DTD SVG 1.1//EN"
 "http://www.w3.org/Graphics/SVG/1.1/DTD/svg11.dtd">
<!-- Generated by graphviz version 2.30.1 (20130214.1330)
 -->
<!-- Title: G Pages: 1 -->
<svg width="189pt" height="174pt"
 viewBox="0.00 0.00 189.34 174.00" xmlns="http://www.w3.org/2000/svg" xmlns:xlink="http://www.w3.org/1999/xlink">
<g id="graph0" class="graph" transform="scale(1 1) rotate(0) translate(4 170)">
<title>G</title>
<polygon fill="white" stroke="white" points="-4,5 -4,-170 186.336,-170 186.336,5 -4,5"/>
<g id="clust1" class="cluster"><title>cluster_inputs</title>
<polygon fill="none" stroke="white" points="55,-124 55,-158 171,-158 171,-124 55,-124"/>
</g>
<g id="clust2" class="cluster"><title>cluster_outputs</title>
<polygon fill="none" stroke="white" points="8,-58 8,-104 72,-104 72,-58 8,-58"/>
</g>
<!-- 1 -->
<g id="node1" class="node"><title>1</title>
<polygon fill="lightgrey" stroke="black" points="162.25,-150 141.75,-150 141.75,-132 162.25,-132 162.25,-150"/>
<text text-anchor="middle" x="152" y="-138.8" font-family="Times New Roman,serif" font-size="9.00">1</text>
</g>
<!-- 4 -->
<g id="node4" class="node"><title>4</title>
<ellipse fill="lightblue" stroke="lightblue" cx="31" cy="-81" rx="14.2796" ry="14.7"/>
<text text-anchor="middle" x="31" y="-78.8" font-family="Times New Roman,serif" font-size="9.00">4</text>
</g>
<!-- 1&#45;&gt;4 -->
<g id="edge7" class="edge"><title>1&#45;&gt;4</title>
<path fill="none" stroke="black" d="M143.034,-131.94C139.715,-129.202 135.827,-126.265 132,-124 106.835,-109.106 75.4014,-96.9336 54.3451,-89.5976"/>
<polygon fill="black" stroke="black" points="55.236,-86.2039 44.6417,-86.3037 52.9859,-92.8324 55.236,-86.2039"/>
</g>
<!-- 5 -->
<g id="node5" class="node"><title>5</title>
<ellipse fill="none" stroke="black" cx="135" cy="-81" rx="14.2796" ry="14.7"/>
<text text-anchor="middle" x="135" y="-78.8" font-family="Times New Roman,serif" font-size="9.00">5</text>
</g>
<!-- 1&#45;&gt;5 -->
<g id="edge8" class="edge"><title>1&#45;&gt;5</title>
<path fill="none" stroke="black" d="M149.636,-131.935C147.599,-124.986 144.556,-114.603 141.771,-105.102"/>
<polygon fill="black" stroke="black" points="145.082,-103.955 138.911,-95.3428 138.365,-105.924 145.082,-103.955"/>
</g>
<!-- 6 -->
<g id="node6" class="node"><title>6</title>
<ellipse fill="none" stroke="black" cx="135" cy="-15" rx="14.2796" ry="14.7"/>
<text text-anchor="middle" x="135" y="-12.8" font-family="Times New Roman,serif" font-size="9.00">6</text>
</g>
<!-- 1&#45;&gt;6 -->
<g id="edge9" class="edge"><title>1&#45;&gt;6</title>
<path fill="none" stroke="black" d="M159.49,-131.866C165.26,-125.01 172.778,-114.64 176,-104 181.924,-84.4328 183.71,-76.935 176,-58 171.619,-47.2411 163.01,-37.7356 154.806,-30.5008"/>
<polygon fill="black" stroke="black" points="156.871,-27.6686 146.91,-24.0604 152.447,-33.0932 156.871,-27.6686"/>
</g>
<!-- 2 -->
<g id="node2" class="node"><title>2</title>
<polygon fill="lightgrey" stroke="black" points="84.25,-150 63.75,-150 63.75,-132 84.25,-132 84.25,-150"/>
<text text-anchor="middle" x="74" y="-138.8" font-family="Times New Roman,serif" font-size="9.00">2</text>
</g>
<!-- 2&#45;&gt;6 -->
<g id="edge2" class="edge"><title>2&#45;&gt;6</title>
<path fill="none" stroke="black" d="M77.422,-131.731C83.6687,-116.8 97.5209,-84.4367 111,-58 114.537,-51.063 118.66,-43.6415 122.481,-36.9964"/>
<polygon fill="black" stroke="black" points="125.736,-38.363 127.759,-27.9631 119.692,-34.8316 125.736,-38.363"/>
</g>
<!-- 2&#45;&gt;5 -->
<g id="edge11" class="edge"><title>2&#45;&gt;5</title>
<path fill="none" stroke="black" d="M82.4818,-131.935C91.4189,-123.438 105.757,-109.805 117.195,-98.9295"/>
<polygon fill="black" stroke="black" points="119.713,-101.365 124.548,-91.9376 114.89,-96.2918 119.713,-101.365"/>
</g>
<!-- 2&#45;&gt;4 -->
<g id="edge13" class="edge"><title>2&#45;&gt;4</title>
<path fill="none" stroke="black" d="M68.021,-131.935C62.1798,-124.056 53.0656,-111.763 45.3424,-101.346"/>
<polygon fill="black" stroke="black" points="48.0517,-99.1231 39.2845,-93.1744 42.4285,-103.292 48.0517,-99.1231"/>
</g>
<!-- 3 -->
<g id="node3" class="node"><title>3</title>
<polygon fill="lightgrey" stroke="black" points="123.25,-150 102.75,-150 102.75,-132 123.25,-132 123.25,-150"/>
<text text-anchor="middle" x="113" y="-138.8" font-family="Times New Roman,serif" font-size="9.00">3</text>
</g>
<!-- 3&#45;&gt;4 -->
<g id="edge12" class="edge"><title>3&#45;&gt;4</title>
<path fill="none" stroke="black" d="M102.947,-131.702C99.8025,-129.176 96.2933,-126.427 93,-124 79.4887,-114.043 63.8381,-103.448 51.6416,-95.3904"/>
<polygon fill="black" stroke="black" points="53.3623,-92.3333 43.0808,-89.7757 49.5233,-98.1867 53.3623,-92.3333"/>
</g>
<!-- 3&#45;&gt;5 -->
<g id="edge15" class="edge"><title>3&#45;&gt;5</title>
<path fill="none" stroke="black" d="M116.059,-131.935C118.723,-124.912 122.717,-114.382 126.352,-104.799"/>
<polygon fill="black" stroke="black" points="129.665,-105.934 129.939,-95.3428 123.12,-103.451 129.665,-105.934"/>
</g>
<!-- 4&#45;&gt;5 -->
<g id="edge5" class="edge"><title>4&#45;&gt;5</title>
<path fill="none" stroke="black" d="M45.625,-81C67.1241,-81 88.6233,-81 110.122,-81"/>
<polygon fill="black" stroke="black" points="110.337,-84.5001 120.337,-81 110.337,-77.5001 110.337,-84.5001"/>
</g>
<!-- 4&#45;&gt;4 -->
<g id="edge6" class="edge"><title>4&#45;&gt;4</title>
<path fill="none" stroke="black" d="M42.483,-90.3933C52.4531,-94.678 63,-91.5469 63,-81 63,-74.0786 58.4578,-70.3509 52.5173,-69.817"/>
<polygon fill="black" stroke="black" points="51.7131,-66.4051 42.483,-71.6067 52.9423,-73.2963 51.7131,-66.4051"/>
</g>
<!-- 5&#45;&gt;4 -->
<g id="edge1" class="edge"><title>5&#45;&gt;4</title>
<path fill="none" stroke="black" d="M120.337,-81C98.8378,-81 77.3387,-81 55.8395,-81"/>
<polygon fill="black" stroke="black" points="55.625,-77.5001 45.625,-81 55.625,-84.5001 55.625,-77.5001"/>
</g>
<!-- 5&#45;&gt;5 -->
<g id="edge3" class="edge"><title>5&#45;&gt;5</title>
<path fill="none" stroke="black" d="M146.483,-90.3933C156.453,-94.678 167,-91.5469 167,-81 167,-74.0786 162.458,-70.3509 156.517,-69.817"/>
<polygon fill="black" stroke="black" points="155.713,-66.4051 146.483,-71.6067 156.942,-73.2963 155.713,-66.4051"/>
</g>
<!-- 5&#45;&gt;6 -->
<g id="edge10" class="edge"><title>5&#45;&gt;6</title>
<path fill="none" stroke="black" d="M129.451,-67.0486C128.287,-58.9811 127.969,-48.3739 128.498,-38.9196"/>
<polygon fill="black" stroke="black" points="131.985,-39.2203 129.454,-28.9321 125.017,-38.5528 131.985,-39.2203"/>
</g>
<!-- 6&#45;&gt;6 -->
<g id="edge4" class="edge"><title>6&#45;&gt;6</title>
<path fill="none" stroke="black" d="M145.819,-25.0063C155.979,-30.1948 167,-26.8594 167,-15 167,-7.03198 162.025,-2.9118 155.679,-2.63946"/>
<polygon fill="black" stroke="black" points="154.733,0.733195 145.819,-4.99365 156.359,-6.0754 154.733,0.733195"/>
</g>
<!-- 6&#45;&gt;5 -->
<g id="edge14" class="edge"><title>6&#45;&gt;5</title>
<path fill="none" stroke="black" d="M140.546,-28.9321C141.712,-36.9956 142.031,-47.6017 141.504,-57.0578"/>
<polygon fill="black" stroke="black" points="138.016,-56.7609 140.549,-67.0486 144.984,-57.4271 138.016,-56.7609"/>
</g>
</g>
</svg>
