<?xml version="1.0" encoding="UTF-8" standalone="no"?>
<!DOCTYPE svg PUBLIC "-//W3C//DTD SVG 1.1//EN"
 "http://www.w3.org/Graphics/SVG/1.1/DTD/svg11.dtd">
<!-- Generated by graphviz version 2.30.1 (20130214.1330)
 -->
<!-- Title: G Pages: 1 -->
<svg width="134pt" height="256pt"
 viewBox="0.00 0.00 133.93 256.00" xmlns="http://www.w3.org/2000/svg" xmlns:xlink="http://www.w3.org/1999/xlink">
<g id="graph0" class="graph" transform="scale(1 1) rotate(0) translate(4 252)">
<title>G</title>
<polygon fill="white" stroke="white" points="-4,5 -4,-252 130.932,-252 130.932,5 -4,5"/>
<g id="clust1" class="cluster"><title>cluster_inputs</title>
<polygon fill="none" stroke="white" points="16.7362,-206 16.7362,-240 93.7362,-240 93.7362,-206 16.7362,-206"/>
</g>
<g id="clust2" class="cluster"><title>cluster_outputs</title>
<polygon fill="none" stroke="white" points="14.7362,-8 14.7362,-54 60.7362,-54 60.7362,-8 14.7362,-8"/>
</g>
<!-- 1 -->
<g id="node1" class="node"><title>1</title>
<polygon fill="lightgrey" stroke="black" points="45.9862,-232 25.4862,-232 25.4862,-214 45.9862,-214 45.9862,-232"/>
<text text-anchor="middle" x="35.7362" y="-220.8" font-family="Times New Roman,serif" font-size="9.00">1</text>
</g>
<!-- 3 -->
<g id="node3" class="node"><title>3</title>
<ellipse fill="lightblue" stroke="lightblue" cx="37.7362" cy="-31" rx="14.2796" ry="14.7"/>
<text text-anchor="middle" x="37.7362" y="-28.8" font-family="Times New Roman,serif" font-size="9.00">3</text>
</g>
<!-- 1&#45;&gt;3 -->
<g id="edge3" class="edge"><title>1&#45;&gt;3</title>
<path fill="none" stroke="cornflowerblue" stroke-dasharray="1,5" d="M27.5464,-213.78C19.9595,-205.536 9.19629,-192.074 4.73617,-178 -9.02765,-134.567 11.5403,-82.1443 25.8701,-53.4182"/>
<polygon fill="cornflowerblue" stroke="cornflowerblue" points="29.1036,-54.7861 30.612,-44.2992 22.8931,-51.5566 29.1036,-54.7861"/>
</g>
<!-- 4 -->
<g id="node5" class="node"><title>4</title>
<ellipse fill="none" stroke="black" cx="78.7362" cy="-97" rx="14.2796" ry="14.7"/>
<text text-anchor="middle" x="78.7362" y="-94.8" font-family="Times New Roman,serif" font-size="9.00">4</text>
</g>
<!-- 1&#45;&gt;4 -->
<g id="edge4" class="edge"><title>1&#45;&gt;4</title>
<path fill="none" stroke="black" d="M29.1464,-213.914C18.6326,-199.967 0.353682,-170.697 11.7362,-148 21.0037,-129.52 40.7,-116.126 56.3511,-107.879"/>
<polygon fill="black" stroke="black" points="58.0133,-110.962 65.4439,-103.409 54.9255,-104.68 58.0133,-110.962"/>
</g>
<!-- 6 -->
<g id="node4" class="node"><title>6</title>
<ellipse fill="none" stroke="black" cx="35.7362" cy="-163" rx="14.2796" ry="14.7"/>
<text text-anchor="middle" x="35.7362" y="-160.8" font-family="Times New Roman,serif" font-size="9.00">6</text>
</g>
<!-- 1&#45;&gt;6 -->
<g id="edge9" class="edge"><title>1&#45;&gt;6</title>
<path fill="none" stroke="black" d="M35.7362,-213.935C35.7362,-207.313 35.7362,-197.572 35.7362,-188.448"/>
<polygon fill="black" stroke="black" points="39.2363,-188.244 35.7362,-178.244 32.2363,-188.244 39.2363,-188.244"/>
</g>
<!-- 2 -->
<g id="node2" class="node"><title>2</title>
<polygon fill="lightgrey" stroke="black" points="84.9862,-232 64.4862,-232 64.4862,-214 84.9862,-214 84.9862,-232"/>
<text text-anchor="middle" x="74.7362" y="-220.8" font-family="Times New Roman,serif" font-size="9.00">2</text>
</g>
<!-- 2&#45;&gt;6 -->
<g id="edge6" class="edge"><title>2&#45;&gt;6</title>
<path fill="none" stroke="black" d="M69.3134,-213.935C64.1332,-206.232 56.1151,-194.307 49.2132,-184.043"/>
<polygon fill="black" stroke="black" points="52.0191,-181.943 43.5347,-175.598 46.2102,-185.849 52.0191,-181.943"/>
</g>
<!-- 2&#45;&gt;3 -->
<g id="edge7" class="edge"><title>2&#45;&gt;3</title>
<path fill="none" stroke="black" d="M85.1415,-216.139C96.8067,-208.901 115.089,-195.384 122.736,-178 128.105,-165.795 124.782,-161.175 122.736,-148 118.014,-117.582 119.315,-107.269 101.736,-82 90.6795,-66.1067 73.0711,-52.878 59.1203,-44.0279"/>
<polygon fill="black" stroke="black" points="60.5411,-40.7971 50.172,-38.6216 56.9212,-46.7885 60.5411,-40.7971"/>
</g>
<!-- 5 -->
<g id="node6" class="node"><title>5</title>
<ellipse fill="none" stroke="black" cx="83.7362" cy="-163" rx="14.2796" ry="14.7"/>
<text text-anchor="middle" x="83.7362" y="-160.8" font-family="Times New Roman,serif" font-size="9.00">5</text>
</g>
<!-- 2&#45;&gt;5 -->
<g id="edge10" class="edge"><title>2&#45;&gt;5</title>
<path fill="none" stroke="black" d="M75.9876,-213.935C77.0404,-207.151 78.6011,-197.093 80.0465,-187.778"/>
<polygon fill="black" stroke="black" points="83.5213,-188.21 81.5962,-177.791 76.6041,-187.136 83.5213,-188.21"/>
</g>
<!-- 2&#45;&gt;4 -->
<g id="edge11" class="edge"><title>2&#45;&gt;4</title>
<path fill="none" stroke="black" d="M83.1852,-213.832C91.0133,-205.626 102.121,-192.192 106.736,-178 110.859,-165.32 110.103,-160.901 106.736,-148 103.94,-137.283 98.2802,-126.431 92.7766,-117.589"/>
<polygon fill="black" stroke="black" points="95.6592,-115.602 87.2243,-109.191 89.8201,-119.463 95.6592,-115.602"/>
</g>
<!-- 6&#45;&gt;4 -->
<g id="edge1" class="edge"><title>6&#45;&gt;4</title>
<path fill="none" stroke="black" d="M43.623,-150.261C49.6238,-141.33 58.0281,-128.821 65.1099,-118.281"/>
<polygon fill="black" stroke="black" points="68.2275,-119.917 70.8993,-109.664 62.4172,-116.013 68.2275,-119.917"/>
</g>
<!-- 6&#45;&gt;3 -->
<g id="edge5" class="edge"><title>6&#45;&gt;3</title>
<path fill="none" stroke="black" d="M35.9502,-148.088C36.2868,-126.211 36.9442,-83.4788 37.3607,-56.4081"/>
<polygon fill="black" stroke="black" points="40.8633,-56.259 37.5176,-46.2063 33.8641,-56.1513 40.8633,-56.259"/>
</g>
<!-- 4&#45;&gt;3 -->
<g id="edge8" class="edge"><title>4&#45;&gt;3</title>
<path fill="none" stroke="black" d="M71.2161,-84.2614C65.566,-75.4417 57.6811,-63.1335 50.9824,-52.6771"/>
<polygon fill="black" stroke="black" points="53.8285,-50.6314 45.4871,-44.099 47.9343,-54.4074 53.8285,-50.6314"/>
</g>
<!-- 5&#45;&gt;4 -->
<g id="edge2" class="edge"><title>5&#45;&gt;4</title>
<path fill="none" stroke="black" d="M82.6512,-148.113C82.055,-140.481 81.2986,-130.8 80.61,-121.985"/>
<polygon fill="black" stroke="black" points="84.0873,-121.557 79.819,-111.86 77.1086,-122.102 84.0873,-121.557"/>
</g>
</g>
</svg>
